<?xml version="1.0" encoding="utf-8"?>
<svg xmlns="http://www.w3.org/2000/svg" viewBox="0 0 600 600">
    <style type="text/css">
        path {
            fill: black;
        }

        @media (prefers-color-scheme: dark) {
            path {
                fill: white;
            }
        }
    </style>
    <path d="M280.7,511.3c-18.7,0-35.6-1.8-50.6-5.5c-15-3.7-28.7-8.7-40.9-15.2c-12.2-6.5-23.2-14.1-32.9-22.9c-9.8-8.7-18.3-18.2-25.6-28.4l76.2-72c10.6,12.6,21,22.4,31.4,29.3c10.4,6.9,22.1,10.4,35.1,10.4c15,0,26.9-5,35.7-14.9c8.7-10,13.1-24.9,13.1-44.8V77h117.7v270.8c0,26.8-3.5,50-10.4,69.5c-6.9,19.5-17.5,36.4-31.7,50.6c-14.2,14.2-31.2,25-50.9,32.3C327.2,507.7,305.1,511.3,280.7,511.3z"/>
</svg>
