<?xml version="1.0" encoding="utf-8"?>
<svg xmlns="http://www.w3.org/2000/svg" viewBox="110.25 117.3 311.55 69">
  <style>
    path {
      fill: white;
    }
  </style>
  <g transform="matrix(1.33 0 0 -1.33 0 302.85)">
    <path d="M0 0v.76h-3.9v-7.2H0v.75h-3v2.51h2.7v.72H-3V0Zm2.7-.77c-.59 0-1.05-.14-1.4-.43a1.42 1.42 0 0 1-.5-1.14 1.29 1.29 0 0 1 .87-1.3c.25-.1.57-.19.98-.28.33-.08.59-.15.77-.22.19-.07.35-.16.48-.3.12-.12.19-.3.19-.51a.84.84 0 0 0-.27-.65 1.05 1.05 0 0 0-.74-.24c-.42 0-.76.1-1.02.31s-.4.5-.43.83H.74c.08-.57.32-1.02.74-1.34.41-.32.95-.48 1.6-.48.56 0 1.01.15 1.35.43.34.29.5.66.5 1.12a1.35 1.35 0 0 1-.9 1.35c-.25.1-.58.2-.99.29l-.76.2a1.2 1.2 0 0 0-.46.3.68.68 0 0 0-.18.5c0 .26.09.48.27.64.19.16.44.24.77.24.39 0 .7-.1.93-.32.23-.22.37-.5.4-.82h.88c-.08.55-.31 1-.69 1.33-.38.33-.88.5-1.5.5M10.78.48v.82C9.3 1.37 8.56.73 8.56-.61v-.23h-.8v-.81h.8v-4.8h.92v4.8h2.88v.81H9.48v.16c0 .43.1.74.28.91.2.18.53.27 1.02.26m4.83-1.33v-2.98c0-.63-.15-1.11-.45-1.45-.3-.33-.7-.5-1.2-.5-.49 0-.87.16-1.15.46-.28.3-.42.74-.42 1.3v3.17h-.92V-4.1c0-.78.2-1.38.6-1.8.4-.42.9-.63 1.54-.63.48 0 .9.12 1.25.37.36.24.6.59.75 1.04v-1.31h.91v5.6zm4.3-4.79c-.33 0-.55.07-.68.2s-.2.38-.2.74v3.05h1.43v.8h-1.43v1.4h-.92v-1.4h-.82v-.8h.82v-3.03c0-.64.14-1.1.42-1.37.27-.27.7-.4 1.26-.4h.68v.81zm5.5 4.8v-2.99c0-.63-.14-1.11-.44-1.45-.3-.33-.7-.5-1.21-.5-.48 0-.86.16-1.14.46-.28.3-.43.74-.43 1.3v3.17h-.9V-4.1c0-.78.19-1.38.58-1.8.4-.42.91-.63 1.55-.63.47 0 .89.12 1.25.37.36.24.6.59.75 1.04v-1.32h.91v5.61zm3.15-1.14v1.13h-.91v-5.6h.9v2.95c0 .62.17 1.06.5 1.33.33.27.75.4 1.27.4h.28v1.01c-.49 0-.9-.1-1.25-.32a2.06 2.06 0 0 1-.8-.9m5.1 1.2c-.53 0-1-.11-1.42-.34a2.5 2.5 0 0 1-1-1 3.12 3.12 0 0 1-.35-1.54c0-.58.12-1.1.36-1.52.24-.44.57-.77.99-1 .42-.23.89-.35 1.42-.35.53 0 1 .12 1.42.35.42.23.74.56.98 1 .24.43.36.94.36 1.52 0 .59-.12 1.1-.36 1.54-.24.43-.56.77-.98 1-.42.23-.9.34-1.42.34m0-.81c.33 0 .63-.08.9-.23.28-.15.5-.38.68-.69.17-.3.26-.69.26-1.15 0-.45-.1-.83-.26-1.14-.17-.3-.4-.53-.67-.68a1.88 1.88 0 0 0-.91-.23c-.33 0-.63.08-.91.23-.28.15-.5.37-.67.68-.17.31-.26.7-.26 1.14 0 .46.09.84.26 1.15.17.31.4.54.67.7.28.14.58.22.9.22" transform="translate(260.7 102.02)"></path>
    <path d="m0 0-2.6 7.17h-1.98L-7.18 0h1.81l.44 1.32h2.66L-1.83 0Zm-2.71 2.65h-1.78l.9 2.65zM-9.37 0h1.72v7.22h-1.72V2.75l-2.87 4.47h-1.71V0h1.71v4.43zm-5.92 1.33c.26.47.4 1.04.4 1.72v4.17h-1.72V3.05c0-.47-.1-.84-.32-1.09-.21-.25-.52-.38-.92-.38s-.7.13-.92.38c-.2.25-.31.62-.31 1.1v4.16h-1.7V3.05c0-.68.12-1.25.36-1.72.25-.47.6-.82 1.03-1.05.43-.24.93-.35 1.5-.35s1.08.12 1.53.35c.46.24.81.59 1.07 1.05M-26.64 0h5.04v1.41h-3.13l3.1 4.48v1.33h-4.97v-1.4h3.04l-3.08-4.5zm-2.57 0h1.72v7.22h-1.72zm-.52 0-2.86 3.69 2.86 3.53h-2.06l-2.43-3.17v3.17h-1.72V0h1.72v3.24l2.4-3.24Zm-7.05 0-1.69 2.84c.55.14.96.39 1.24.76.29.36.43.8.43 1.33 0 .45-.1.84-.3 1.18-.18.35-.48.62-.86.82-.4.2-.87.3-1.43.3h-2.93V0h1.72v2.73h.39L-38.68 0Zm-1.77 4.83c0-.3-.08-.52-.24-.68-.16-.15-.4-.23-.75-.23h-1.06v1.83h1.06c.34 0 .58-.08.75-.24a.91.91 0 0 0 .24-.68m-5.01-3.1c.32.56.48 1.2.48 1.9 0 .72-.16 1.35-.48 1.91a3.43 3.43 0 0 1-3.1 1.8 3.54 3.54 0 0 1-3.6-3.7c0-.71.17-1.35.49-1.91a3.47 3.47 0 0 1 3.1-1.8 3.55 3.55 0 0 1 3.11 1.8m-1.27 1.9c0-.63-.17-1.13-.5-1.5a1.7 1.7 0 0 0-1.34-.57c-.56 0-1 .19-1.34.56-.33.38-.5.88-.5 1.52s.17 1.14.5 1.51c.33.37.78.56 1.34.56s1.01-.19 1.34-.56c.33-.38.5-.88.5-1.51m-7.46 2.2h1.93v1.38h-5.47V5.83h1.81V0h1.73zm-3.63 0v1.38h-4.33V0h4.42v1.4h-2.7V3h2.4v1.32h-2.4v1.51z" transform="translate(317.14 116.79)"></path>
    <path d="M0 0v7.22h-1.72V2.75l-2.87 4.47H-6.3V0h1.71v4.43L-1.72 0Zm-9 0h1.71v7.22H-9zm-2.3 0h1.83l-2.6 7.17h-1.97L-16.64 0h1.8l.44 1.32h2.67zm-.88 2.65h-1.77l.89 2.65zM-16.78 0l-1.68 2.84c.54.14.95.39 1.24.76.28.36.43.8.43 1.33 0 .45-.1.84-.3 1.18-.19.35-.48.62-.87.82-.39.2-.86.3-1.42.3h-2.94V0h1.72v2.73h.4L-18.68 0Zm-1.76 4.83c0-.3-.08-.52-.24-.68-.16-.15-.41-.23-.75-.23h-1.07v1.83h1.07c.33 0 .58-.08.74-.24a.91.91 0 0 0 .25-.68m-5.01-3.1c.31.56.47 1.2.47 1.9 0 .72-.15 1.35-.47 1.91a3.43 3.43 0 0 1-3.11 1.8 3.54 3.54 0 0 1-3.59-3.7c0-.71.16-1.35.48-1.91a3.45 3.45 0 0 1 3.1-1.8 3.54 3.54 0 0 1 3.12 1.8m-1.27 1.9c0-.63-.17-1.13-.5-1.5a1.7 1.7 0 0 0-1.34-.57c-.56 0-1.01.19-1.34.56-.33.38-.5.88-.5 1.52s.17 1.14.5 1.51c.33.37.78.56 1.34.56s1-.19 1.34-.56c.33-.38.5-.88.5-1.51" transform="translate(287.03 105.74)"></path>
    <path d="M0 0a5.05 5.05 0 0 0-4.03-3.57v-4.15c1.38-.35 1.69-1.26 3.82-1.39C2-8.97 2.36-8 3.93-7.69v4.17A5.2 5.2 0 0 0 0 0" transform="translate(170.97 118.8)"></path>
    <path d="M0 0a5.06 5.06 0 0 0-4.03-3.59v-4.14C-2.56-8.07-2.17-9-.01-9.13 2.11-9 2.52-8.1 3.93-7.75v4.2A5.17 5.17 0 0 0 0 0" transform="translate(160.55 118.82)"></path>
    <path d="M0 0h-40l-.04-32.84c-.26-10.22 10.03-18.46 20.01-18.23 9.99-.25 20.22 7.96 20 18.18zm-7.7-40.47c-.51.24-1.11.42-2.07.42-2.56 0-2.56-1.28-5.2-1.52-2.63.24-2.47 1.52-5.02 1.52-2.56 0-2.56-1.28-5.2-1.52-2.63.24-2.63 1.52-5.19 1.52a4.62 4.62 0 0 1-2.22-.5c-.44.61-.84 1.24-1.2 1.89 1.1.46 1.64 1.08 3.42 1.08 2.56 0 2.56-1.27 5.2-1.51 2.63.24 2.63 1.51 5.19 1.51 2.55 0 2.4-1.27 5.03-1.51 2.63.24 2.63 1.51 5.19 1.51 1.7 0 2.27-.57 3.25-1.02-.35-.64-.74-1.27-1.18-1.87m2.15 4.1c-1.71.41-2.03 1.35-4.22 1.35-2.56 0-2.56-1.28-5.2-1.52-2.63.24-2.47 1.52-5.02 1.52-2.56 0-2.56-1.28-5.2-1.52-2.63.24-2.63 1.52-5.19 1.52-2.25 0-2.52-1-4.41-1.39-.27.76-.47 1.56-.6 2.37 2.46.23 2.55 1.5 5.01 1.5 2.56 0 2.56-1.36 5.2-1.53 2.63.17 2.63 1.52 5.19 1.52 2.55 0 2.4-1.35 5.03-1.52 2.63.17 2.63 1.52 5.19 1.52 2.42 0 2.55-1.21 4.8-1.48-.13-.8-.32-1.58-.58-2.35M-4.8-29v-2.48c-2.41.22-2.5 1.5-4.97 1.5-2.56 0-2.56-1.36-5.2-1.52-2.63.16-2.47 1.52-5.02 1.52-2.56 0-2.56-1.36-5.2-1.52-2.63.16-2.63 1.52-5.18 1.52-2.53 0-2.56-1.33-5.19-1.51l.02 2.48c2.07.15 2.52 1 3.88 1.36v4.21c-2.21.5-4.75 2.3-4.22 6.95 0 4.15 2.95 11.02 5.5 10.7 2.06.26 4.44-4.41 5.2-8.39.73 3.98 3.07 8.65 5.19 8.39 2.02.26 4.42-4.29 5.23-8.23.8 3.94 3.2 8.5 5.23 8.23 2.47.32 5.43-6.55 5.43-10.7.54-4.82-2.1-6.58-4.27-7v-4.2c1.24-.36 1.72-1.14 3.57-1.31" transform="translate(185.72 138.72)"></path>
    <path d="M0 0a2.62 2.62 0 0 1-.42-.08c-.1-.03-.16-.09-.2-.16a.55.55 0 0 1-.04-.23v-.6a11.28 11.28 0 0 1 .01-.56c-.24-.14-.6-.28-1.07-.41-.47-.13-.9-.2-1.3-.2-.37 0-.72.07-1.05.18A2.42 2.42 0 0 0-5.5-.71 2.9 2.9 0 0 0-5.7.43c0 .4.06.77.2 1.12a2.48 2.48 0 0 0 1.47 1.44 3.32 3.32 0 0 0 2.6-.14l.23.2h.31l.03-1.88h-.32c-.18.57-.4.99-.65 1.26-.26.27-.58.41-.98.41-.46 0-.82-.2-1.07-.6-.25-.41-.38-.97-.38-1.69 0-.75.12-1.35.37-1.77.25-.43.6-.65 1.06-.65.2 0 .4.04.56.1.17.06.3.14.39.22V-.5c0 .08-.02.16-.05.22a.4.4 0 0 1-.19.15 4.4 4.4 0 0 1-.54.13v.28H0Z" transform="translate(99.18 129.28)"></path>
    <path d="M0 0h-2.29v.27a2.76 2.76 0 0 1 .34.05.3.3 0 0 1 .16.12c.04.06.05.13.05.22v2.1c0 .1-.02.17-.06.23a.49.49 0 0 1-.14.15 1.26 1.26 0 0 1-.44.13v.27l1.77.1.06-.06V.71A.4.4 0 0 1-.5.49c.04-.06.1-.1.16-.13A1.18 1.18 0 0 1 0 .26Zm-.53 4.94a.61.61 0 0 0-.21-.47.72.72 0 0 0-.5-.2c-.2 0-.37.07-.5.2a.61.61 0 0 0-.22.47c0 .19.07.34.21.47.14.13.31.2.5.2.2 0 .37-.07.51-.2a.62.62 0 0 0 .21-.47" transform="translate(101.69 127.2)"></path>
    <path d="M0 0c0-.51-.17-.95-.51-1.31a1.69 1.69 0 0 0-1.3-.55c-.22 0-.41.03-.56.07-.14.05-.26.1-.35.17h-.03v-1.01c0-.09.01-.16.05-.23.04-.06.1-.1.16-.13l.28-.08.3-.04v-.26h-2.62v.26a4.16 4.16 0 0 1 .43.07c.08.03.13.08.16.14.03.06.04.14.04.22v3.7c0 .08-.03.15-.06.22a.44.44 0 0 1-.14.15.67.67 0 0 1-.2.08c-.07.02-.15.04-.23.04v.27l1.77.1.06-.05v-.4l.02-.01c.16.16.34.28.53.37.2.1.4.14.58.14.5 0 .9-.18 1.19-.53C-.15 1.04 0 .58 0 0m-1.3-.01c0 .18-.01.35-.04.52-.03.16-.07.3-.14.44a.84.84 0 0 1-.26.31.65.65 0 0 1-.4.12.74.74 0 0 1-.37-.08.86.86 0 0 1-.24-.22V-.97c.01-.05.04-.11.08-.19a.9.9 0 0 1 .12-.18.56.56 0 0 1 .2-.15.67.67 0 0 1 .26-.04c.24 0 .43.13.57.38.15.26.22.64.22 1.14" transform="translate(106.44 128.96)"></path>
    <path d="m0 0-1.73-.1-.05.05v.47h-.02L-2.04.2a1.9 1.9 0 0 0-.63-.34 1.87 1.87 0 0 0-.48-.04c-.37 0-.65.1-.84.33-.2.22-.3.53-.3.93V2.7c0 .1-.01.17-.05.23a.57.57 0 0 1-.14.15.45.45 0 0 1-.19.08l-.2.03v.27l1.74.1.04-.06V1.1c0-.25.05-.44.15-.55.1-.12.22-.18.39-.18s.32.04.46.13c.14.1.24.19.3.29v1.95a.5.5 0 0 1-.05.22.4.4 0 0 1-.13.16.43.43 0 0 1-.2.06l-.24.02v.27l1.76.1.06-.06V.7c0-.08.01-.16.05-.21A.43.43 0 0 1-.22.28L0 .26Z" transform="translate(111.63 127.27)"></path>
    <path d="M0 0h-3.56v.25l2.07 3.02c-.28 0-.54 0-.77-.02-.23 0-.41-.03-.55-.08-.04-.02-.1-.1-.18-.27a2.6 2.6 0 0 1-.18-.49h-.25v1.18h3.37v-.22L-2.15.33H-1.56a7.42 7.42 0 0 1 .7.03c.1 0 .18.04.24.1.06.05.1.12.14.2a5.33 5.33 0 0 1 .24.7H0Z" transform="translate(115.44 127.2)"></path>
    <path d="M0 0h-1.7a14.4 14.4 0 0 1-1.08 1.65l-.2-.18V.68c0-.09 0-.16.03-.21.02-.06.07-.1.15-.13a.96.96 0 0 1 .33-.08V0h-2.26v.27a2.8 2.8 0 0 1 .35.05c.07.03.13.07.15.12.03.06.05.13.05.22V4.7c0 .08-.02.16-.06.25a.4.4 0 0 1-.15.2.67.67 0 0 1-.2.06c-.1.02-.18.04-.26.04v.26l1.8.1.06-.06V1.81A31.5 31.5 0 0 1-1.85 2.9c.08.08.13.14.13.18l.02.08c0 .05-.04.08-.12.11-.07.03-.19.06-.34.08v.25h1.84v-.25a3.25 3.25 0 0 1-1.25-.63l-.33-.27A326.2 326.2 0 0 0-.6.56.55.55 0 0 1-.33.34C-.23.3-.11.27 0 .26Z" transform="translate(120.47 127.2)"></path>
    <path d="M0 0c.18-.17.32-.37.41-.6a2.05 2.05 0 0 0 0-1.51c-.1-.24-.23-.44-.4-.61-.2-.18-.43-.32-.69-.42-.26-.1-.57-.14-.9-.14-.3 0-.57.04-.82.12-.25.09-.47.22-.66.38-.18.17-.33.37-.43.6-.1.24-.16.5-.16.8 0 .3.04.55.14.78a1.74 1.74 0 0 0 1.08 1c.26.09.55.13.88.13.33 0 .63-.04.89-.14C-.4.3-.18.17 0 0m-.93-2.51c.06.13.1.3.12.5a5.13 5.13 0 0 1-.1 1.76.85.85 0 0 1-.25.36.58.58 0 0 1-.39.13.58.58 0 0 1-.4-.14.92.92 0 0 1-.25-.37c-.05-.14-.08-.3-.1-.48a5.63 5.63 0 0 1 .12-1.75.83.83 0 0 1 .24-.36.6.6 0 0 1 .4-.13c.14 0 .26.04.37.12.1.08.18.2.24.36" transform="translate(124.21 130.36)"></path>
    <path d="M0 0c-.1-.05-.23-.09-.38-.13-.14-.04-.3-.06-.46-.06-.3 0-.51.05-.65.14a.67.67 0 0 0-.29.38h-.02a2.5 2.5 0 0 0-.24-.21C-2.1.06-2.19 0-2.28-.03a1.9 1.9 0 0 0-.33-.12c-.1-.03-.25-.04-.44-.04-.28 0-.52.08-.72.25-.2.16-.3.38-.3.66 0 .15.03.29.07.4a.9.9 0 0 0 .44.48l.31.14c.22.08.48.17.79.25.3.09.52.16.66.23v.35l-.01.24c-.01.1-.03.18-.06.25a.48.48 0 0 1-.16.2.47.47 0 0 1-.29.07.7.7 0 0 1-.44-.14c0-.04.03-.12.06-.21.04-.1.06-.2.06-.3a.48.48 0 0 0-.13-.3.63.63 0 0 0-.19-.1.96.96 0 0 0-.32-.04c-.2 0-.36.04-.46.14a.5.5 0 0 0-.16.39c0 .13.06.25.17.36.1.1.23.2.39.27a2.86 2.86 0 0 0 1.08.23c.23 0 .44-.02.64-.05.2-.03.37-.08.53-.17.15-.08.27-.2.36-.37.08-.16.13-.37.13-.63A33.47 33.47 0 0 0-.63.71c0-.12.01-.2.04-.26A.31.31 0 0 1-.44.3 5.24 5.24 0 0 1 0 .26Zm-1.8 1.89a4.45 4.45 0 0 1-.73-.35.7.7 0 0 1-.2-.26.84.84 0 0 1-.08-.37c0-.19.04-.33.12-.41.09-.09.2-.13.32-.13a.6.6 0 0 1 .33.09c.09.05.16.12.23.2z" transform="translate(129.37 127.27)"></path>
    <path d="M0 0h-1.7a14.86 14.86 0 0 1-1.08 1.65l-.2-.18V.68a.5.5 0 0 1 .03-.21c.02-.06.07-.1.15-.13a.96.96 0 0 1 .33-.08V0h-2.26v.27a2.76 2.76 0 0 1 .34.05c.08.03.13.07.16.12.03.06.05.13.05.22V4.7c0 .08-.02.16-.06.25a.41.41 0 0 1-.15.2.67.67 0 0 1-.2.06c-.1.02-.18.04-.26.04v.26l1.8.1.06-.06V1.81A31.5 31.5 0 0 1-1.85 2.9c.08.08.13.14.13.18l.02.08c0 .05-.04.08-.12.11-.07.03-.19.06-.34.08v.25h1.84v-.25a3.18 3.18 0 0 1-1.25-.63l-.33-.27A207.57 207.57 0 0 0-.6.56.55.55 0 0 1-.33.34C-.23.3-.11.27 0 .26Z" transform="translate(134.3 127.2)"></path>
    <path d="M0 0c.18-.17.32-.37.41-.6a2.05 2.05 0 0 0 0-1.51c-.1-.24-.23-.44-.4-.61-.2-.18-.43-.32-.69-.42-.26-.1-.57-.14-.9-.14-.3 0-.57.04-.82.12-.25.09-.47.22-.66.38-.18.17-.33.37-.43.6-.1.24-.16.5-.16.8 0 .3.04.55.14.78a1.74 1.74 0 0 0 1.08 1c.26.09.55.13.88.13.33 0 .63-.04.89-.14C-.4.3-.18.17 0 0m-.93-2.51c.06.13.1.3.12.5a5.13 5.13 0 0 1-.1 1.76.85.85 0 0 1-.25.36.58.58 0 0 1-.39.13.58.58 0 0 1-.4-.14.92.92 0 0 1-.25-.37c-.05-.14-.08-.3-.1-.48a5.63 5.63 0 0 1 .12-1.75.83.83 0 0 1 .24-.36.6.6 0 0 1 .4-.13c.14 0 .26.04.37.12.1.08.18.2.24.36" transform="translate(138.04 130.36)"></path>
    <path d="M0 0h-.28c-.07.2-.2.41-.37.64-.18.22-.35.35-.5.37a4.48 4.48 0 0 1-.63.03h-.8V-.97h.51c.15 0 .27.01.38.05.1.03.2.09.28.17a1.48 1.48 0 0 1 .28.67h.28v-2.16h-.28c-.01.1-.05.24-.11.4a1.2 1.2 0 0 1-.17.3.63.63 0 0 1-.27.18c-.1.03-.24.05-.39.05h-.51V-3c0-.09.02-.16.05-.22.03-.07.1-.12.19-.15a2.99 2.99 0 0 1 .5-.1v-.29h-2.78v.29a13.74 13.74 0 0 1 .52.07c.09.04.15.09.18.15.04.06.05.13.05.23V.59c0 .09-.01.16-.04.22a.36.36 0 0 1-.19.15 3.56 3.56 0 0 1-.52.13v.28H0Z" transform="translate(88.05 122.03)"></path>
    <path d="M0 0c.18-.17.32-.37.41-.6a2.05 2.05 0 0 0 0-1.51c-.1-.24-.23-.44-.4-.61-.2-.18-.43-.32-.69-.42-.26-.1-.57-.14-.9-.14-.3 0-.57.04-.82.12a1.9 1.9 0 0 0-.66.38c-.18.17-.33.37-.43.6-.1.24-.16.5-.16.8A1.75 1.75 0 0 0-2.43.4c.26.1.55.14.88.14.33 0 .63-.04.89-.14C-.4.3-.18.17 0 0m-.93-2.51c.06.13.1.3.12.5A5.33 5.33 0 0 1-.9-.26a.85.85 0 0 1-.25.36.58.58 0 0 1-.39.13.58.58 0 0 1-.4-.14.93.93 0 0 1-.25-.37c-.05-.14-.08-.3-.1-.48a5.65 5.65 0 0 1 .12-1.75.83.83 0 0 1 .24-.36.6.6 0 0 1 .4-.13c.14 0 .26.04.37.12.1.08.18.2.24.36" transform="translate(92.07 121.43)"></path>
    <path d="M0 0a.74.74 0 0 0-.17-.48.55.55 0 0 0-.45-.21.74.74 0 0 0-.45.13c-.12.09-.18.22-.18.4 0 .08 0 .14.02.2l.03.12a.77.77 0 0 1-.35-.11 1.18 1.18 0 0 1-.33-.29v-1.99a.5.5 0 0 1 .04-.2c.03-.06.07-.1.14-.14a2.75 2.75 0 0 1 .52-.1v-.26h-2.43v.26a3.79 3.79 0 0 1 .34.06c.08.02.13.06.16.12s.04.13.04.22v2.1c0 .1-.02.17-.06.24a.55.55 0 0 1-.15.17.63.63 0 0 1-.16.07l-.22.04V.6l1.73.1.05-.06V.13h.02c.16.19.34.34.53.45.19.11.38.17.58.17.23 0 .4-.07.54-.21C-.07.4 0 .22 0 0" transform="translate(96.7 121.2)"></path>
    <path d="m0 0-1.73-.1-.05.05v.47h-.02L-2.04.2a1.9 1.9 0 0 0-.63-.34 1.87 1.87 0 0 0-.48-.04c-.37 0-.65.1-.84.33-.2.22-.3.53-.3.93V2.7c0 .1-.01.17-.05.23a.59.59 0 0 1-.14.15.47.47 0 0 1-.19.08l-.2.03v.27l1.74.1.04-.06V1.1c0-.25.05-.44.15-.55.1-.12.22-.18.39-.18s.32.04.46.13c.14.1.24.19.3.29v1.95a.5.5 0 0 1-.05.22.4.4 0 0 1-.13.16.43.43 0 0 1-.2.06l-.24.02v.27l1.76.1.06-.06V.7c0-.08.01-.16.05-.21A.43.43 0 0 1-.22.28L0 .26Z" transform="translate(101.67 118.34)"></path>
    <path d="M0 0h-2.8v.28l.46.07c.17.04.26.09.26.14a.4.4 0 0 1-.03.17l-.44 1.06h-1.78A9.55 9.55 0 0 1-4.68.6c0-.08.05-.14.17-.2.12-.05.31-.1.59-.12V0h-2.11v.28c.08 0 .17.02.27.04s.18.05.23.09c.1.05.19.13.26.21.06.08.12.18.17.3l.84 2.04.93 2.25h.73A337.1 337.1 0 0 0-.8.77.82.82 0 0 1-.7.57.76.76 0 0 1-.24.32L0 .28Zm-2.7 2.08-.75 1.86-.73-1.86Z" transform="translate(109.47 118.26)"></path>
    <path d="M0 0h-2.28v.27a2.58 2.58 0 0 1 .34.05c.08.03.13.07.16.12.03.06.04.13.04.22v4.01c0 .1-.02.18-.06.26a.44.44 0 0 1-.15.18 1.21 1.21 0 0 1-.48.14v.26l1.83.1.06-.06V.71c0-.1.01-.17.04-.22.04-.06.09-.1.16-.13L-.2.3A.93.93 0 0 1 0 .27Z" transform="translate(111.69 118.26)"></path>
    <path d="m0 0-1.79-.1-.05.05v.33h-.03a1.53 1.53 0 0 0-.47-.33 1.53 1.53 0 0 0-1.82.4c-.32.36-.47.83-.47 1.4 0 .52.17.95.53 1.32.35.36.78.55 1.28.55a2.22 2.22 0 0 0 .97-.23v1.19a.6.6 0 0 1-.05.25.46.46 0 0 1-.15.18.74.74 0 0 1-.28.12l-.34.04v.27l1.96.1.06-.06V.73c0-.1.01-.17.04-.24A.33.33 0 0 1-.46.34.68.68 0 0 1-.24.3c.1-.02.18-.02.24-.02Zm-1.85.65v2.04c-.01.06-.04.12-.07.19a.78.78 0 0 1-.12.19.65.65 0 0 1-.47.2c-.24 0-.44-.15-.6-.42a2.38 2.38 0 0 1-.22-1.15c0-.2.01-.38.04-.53.03-.16.07-.3.14-.43a.82.82 0 0 1 .27-.3.7.7 0 0 1 .4-.1c.15 0 .27.02.36.08.1.05.19.13.27.22" transform="translate(116.71 118.34)"></path>
    <path d="m0 0-1.73-.1-.05.05v.47h-.02L-2.04.2a1.9 1.9 0 0 0-.63-.34c-.11-.03-.27-.04-.48-.04-.37 0-.65.1-.84.33-.2.22-.3.53-.3.93V2.7c0 .1-.01.17-.05.23a.57.57 0 0 1-.14.15.47.47 0 0 1-.19.08l-.2.03v.27l1.74.1.04-.06V1.1c0-.25.05-.44.15-.55.1-.12.22-.18.39-.18s.32.04.46.13c.14.1.24.19.3.29v1.95a.5.5 0 0 1-.05.22.4.4 0 0 1-.14.16.42.42 0 0 1-.18.06 3.9 3.9 0 0 1-.25.02v.27l1.76.1.06-.06V.7c0-.08.01-.16.05-.21A.43.43 0 0 1-.22.28L0 .26Z" transform="translate(121.68 118.34)"></path>
    <path d="M0 0h-2.18v.27a5.06 5.06 0 0 1 .32.05c.05.03.08.06.1.12a.6.6 0 0 1 .04.22v1.7c0 .24-.05.43-.14.55-.09.13-.22.19-.4.19a.84.84 0 0 1-.52-.17.84.84 0 0 1-.16-.15l-.11-.13V.7c0-.09.01-.16.04-.21.02-.06.06-.1.11-.13a1.09 1.09 0 0 1 .32-.1V0h-2.2v.27a2.84 2.84 0 0 1 .34.05c.08.03.13.07.16.12.03.06.04.13.04.22v2.1c0 .08-.02.16-.06.23a.52.52 0 0 1-.15.18.6.6 0 0 1-.16.07l-.22.04v.26l1.72.1.06-.06v-.52h.01a30.02 30.02 0 0 0 .52.42 1.66 1.66 0 0 0 .82.21c.39 0 .68-.11.88-.33.2-.23.3-.52.3-.9V.7c0-.09 0-.16.03-.21.03-.06.08-.1.15-.13A1.28 1.28 0 0 1 0 .27Z" transform="translate(126.76 118.26)"></path>
    <path d="m0 0-1.79-.1-.05.05v.33h-.03a1.53 1.53 0 0 0-.47-.33 1.53 1.53 0 0 0-1.82.4c-.32.36-.47.83-.47 1.4 0 .52.17.95.53 1.32.35.36.78.55 1.28.55a2.22 2.22 0 0 0 .97-.23v1.19a.6.6 0 0 1-.05.25.47.47 0 0 1-.15.18.74.74 0 0 1-.28.12 3 3 0 0 1-.34.04v.27l1.96.1.06-.06V.73c0-.1.01-.17.04-.24A.33.33 0 0 1-.46.34.69.69 0 0 1-.24.3c.1-.02.18-.02.24-.02Zm-1.85.65v2.04c-.01.06-.04.12-.07.19a.78.78 0 0 1-.12.19.65.65 0 0 1-.47.2c-.24 0-.44-.15-.6-.42a2.38 2.38 0 0 1-.22-1.15c0-.2.01-.38.04-.53.03-.16.07-.3.14-.43a.82.82 0 0 1 .27-.3.7.7 0 0 1 .4-.1c.15 0 .27.02.36.08.1.05.19.13.27.22" transform="translate(131.77 118.34)"></path>
    <path d="M0 0h-2.29v.27a2.76 2.76 0 0 1 .34.05.3.3 0 0 1 .16.12c.04.06.05.13.05.22v2.1c0 .1-.02.17-.06.23a.49.49 0 0 1-.14.15 1.26 1.26 0 0 1-.44.13v.27l1.77.1.06-.06V.71A.4.4 0 0 1-.5.49c.04-.06.1-.1.16-.13A1.18 1.18 0 0 1 0 .26Zm-.53 4.94a.61.61 0 0 0-.21-.47.72.72 0 0 0-.5-.2c-.2 0-.37.07-.5.2a.61.61 0 0 0-.22.47c0 .19.07.34.21.47.14.13.31.2.5.2.2 0 .37-.07.51-.2a.62.62 0 0 0 .21-.47" transform="translate(134.3 118.26)"></path>
    <path d="M0 0c-.1-.05-.23-.09-.38-.13-.14-.04-.3-.06-.46-.06-.3 0-.51.05-.65.14a.67.67 0 0 0-.29.38h-.02a2.5 2.5 0 0 0-.24-.21C-2.1.06-2.19 0-2.28-.03c-.11-.06-.22-.1-.33-.12-.1-.03-.25-.04-.44-.04-.28 0-.52.08-.72.25-.2.16-.3.38-.3.66 0 .15.03.29.07.4a.9.9 0 0 0 .44.48l.31.14c.22.08.48.17.79.25.3.09.52.16.66.23v.35l-.01.24c-.01.1-.03.18-.06.25a.5.5 0 0 1-.16.2.47.47 0 0 1-.29.07.7.7 0 0 1-.44-.14c0-.04.03-.12.06-.21.04-.1.06-.2.06-.3a.48.48 0 0 0-.13-.3.63.63 0 0 0-.19-.1.96.96 0 0 0-.32-.04c-.2 0-.36.04-.46.14a.5.5 0 0 0-.15.38c0 .14.05.26.16.37.1.1.23.2.39.26a2.79 2.79 0 0 0 1.08.23c.23 0 .44-.01.64-.04s.37-.08.53-.17c.15-.09.27-.2.36-.37.08-.16.13-.37.13-.63A33.47 33.47 0 0 0-.63.71c0-.12.01-.2.04-.26A.31.31 0 0 1-.44.3 5.24 5.24 0 0 1 0 .26Zm-1.8 1.89a4.45 4.45 0 0 1-.73-.35.7.7 0 0 1-.2-.26.85.85 0 0 1-.08-.37c0-.19.04-.33.12-.41.09-.09.2-.13.32-.13a.6.6 0 0 1 .33.09c.09.05.16.12.23.2z" transform="translate(138.78 118.34)"></path>
    <path d="M0 0a2.36 2.36 0 0 0-.9-1.95 2.8 2.8 0 0 0-.9-.47c-.34-.1-.69-.15-1.04-.15H-5v.26a2.57 2.57 0 0 1 .5.06c.08.04.13.08.16.15.03.06.05.13.05.22v3.76c0 .08-.01.16-.04.22a.31.31 0 0 1-.17.16 1.69 1.69 0 0 1-.47.11v.26h2.27A3.04 3.04 0 0 0-.98 2.1c.3-.22.55-.5.72-.86C-.09.9 0 .48 0 0m-.9 0c0 .35-.04.67-.14.95-.1.28-.23.53-.4.74a1.81 1.81 0 0 1-1.45.64 10.8 10.8 0 0 1-.62-.01v-4c0-.22.07-.38.2-.46.13-.09.33-.13.6-.13.3 0 .58.05.81.16.23.11.42.27.56.46.16.2.27.44.34.71.07.27.1.59.1.94" transform="translate(87.9 109.64)"></path>
    <path d="M0 0h-1.75v.24a29.59 29.59 0 0 0 .33.05c.07.02.12.06.16.11.03.06.05.13.05.22v2.23a.45.45 0 0 1-.2.38.7.7 0 0 1-.2.07l-.25.04v.24l1.28.08.05-.05V.66c0-.08.01-.16.05-.21A.3.3 0 0 1-.33.32 1.21 1.21 0 0 1 0 .24Zm-.46 5.09a.54.54 0 0 0-.14-.37.44.44 0 0 0-.66 0c-.1.1-.14.2-.14.34 0 .13.05.25.14.35.1.1.2.15.33.15s.25-.05.34-.14c.09-.1.13-.2.13-.33" transform="translate(90.2 107.07)"></path>
    <path d="M0 0c.14-.17.26-.37.34-.6A2.35 2.35 0 0 0 .3-2.15a1.78 1.78 0 0 0-.93-1c-.2-.09-.4-.13-.63-.13-.22 0-.4.02-.54.07s-.25.1-.34.17h-.03v-1.09c0-.08.02-.16.06-.22a.3.3 0 0 1 .15-.12 1.75 1.75 0 0 1 .52-.1v-.25h-2.02v.25a6.76 6.76 0 0 1 .41.05c.08.02.13.07.16.13a.5.5 0 0 1 .04.21v3.85c0 .08-.02.15-.05.22a.46.46 0 0 1-.15.16.5.5 0 0 1-.18.07 1.9 1.9 0 0 1-.23.03V.4l1.23.08.06-.04v-.4l.02-.01c.13.14.29.26.48.36.19.1.37.15.56.15.22 0 .43-.05.62-.14C-.3.29-.14.15 0 0m-.6-2.6c.1.15.17.33.22.53A2.94 2.94 0 0 1-.37-.85c-.04.2-.1.35-.18.5-.09.14-.2.25-.33.34a.87.87 0 0 1-.49.13.86.86 0 0 1-.46-.12 1.42 1.42 0 0 1-.33-.28v-2.14a.95.95 0 0 1 .52-.54c.1-.04.2-.05.33-.05a.8.8 0 0 1 .4.1c.12.08.23.18.31.3" transform="translate(93.95 110.26)"></path>
    <path d="m0 0-1.18-.08-.06.05v.46h-.02a7.48 7.48 0 0 0-.2-.2 1.59 1.59 0 0 0-.57-.34c-.1-.03-.25-.05-.43-.05-.32 0-.57.1-.73.32-.17.2-.26.5-.26.9V2.8c0 .08-.01.16-.04.22a.47.47 0 0 1-.15.15.47.47 0 0 1-.17.07l-.2.03v.24l1.2.09.06-.06v-2.5c0-.27.05-.47.17-.6.12-.13.26-.2.42-.2a.97.97 0 0 1 .63.21 1.3 1.3 0 0 1 .29.32v2.05a.44.44 0 0 1-.2.38.4.4 0 0 1-.2.05l-.29.01v.25l1.32.08.06-.05V.67c0-.08.01-.15.05-.2C-.47.4-.42.34-.36.3c.04-.03.1-.04.16-.05L0 .24Z" transform="translate(98.81 107.13)"></path>
    <path d="M0 0a5.73 5.73 0 0 0-.45-.17 1.74 1.74 0 0 0-.52-.07c-.3 0-.52.08-.64.23-.13.16-.19.37-.19.65V3.1h-.65v.35h.67v1.13h.66V3.44h1.04V3.1H-1.1V1.07c0-.15 0-.28.02-.38.01-.1.04-.19.08-.26.04-.08.1-.13.17-.17A.75.75 0 0 1-.52.21 2.85 2.85 0 0 1 0 .27z" transform="translate(101.49 107.23)"></path>
    <path d="M0 0a5.35 5.35 0 0 0-.3-.1 1.07 1.07 0 0 0-.3-.04c-.19 0-.34.04-.46.13a.63.63 0 0 0-.21.4h-.02a1.43 1.43 0 0 0-1.17-.54c-.28 0-.5.08-.67.24a.86.86 0 0 0-.27.66c0 .13.02.26.06.37a.9.9 0 0 0 .42.5l.28.13.67.23c.34.11.57.2.68.27v.36c0 .03 0 .1-.02.18a.75.75 0 0 1-.3.5.62.62 0 0 1-.37.1.85.85 0 0 1-.31-.06.58.58 0 0 1-.2-.12c0-.05 0-.12.03-.22l.03-.26a.31.31 0 0 0-.11-.23.45.45 0 0 0-.32-.11c-.13 0-.22.04-.27.13a.52.52 0 0 0-.1.29c0 .11.05.22.13.32s.18.2.3.28a1.73 1.73 0 0 0 .87.24c.2 0 .38-.01.53-.04a1 1 0 0 0 .42-.18c.13-.1.22-.21.29-.37.06-.15.1-.35.1-.6A36.26 36.26 0 0 0-.63.65c0-.1.02-.18.05-.23A.4.4 0 0 1-.42.28c.04-.03.1-.04.18-.04H0Zm-1.28 1.94a7.8 7.8 0 0 1-.55-.18c-.15-.06-.3-.14-.43-.22a.98.98 0 0 1-.3-.3.75.75 0 0 1-.1-.4c0-.2.05-.36.16-.45.1-.1.24-.15.4-.15.18 0 .33.04.46.13.14.08.25.18.34.3z" transform="translate(105.27 107.13)"></path>
    <path d="M0 0c-.52 0-.93.17-1.23.52-.3.35-.44.81-.44 1.4a1.97 1.97 0 0 0 .47 1.32 1.62 1.62 0 0 0 1.25.57c.35 0 .64-.08.86-.25.23-.17.34-.4.34-.7a.6.6 0 0 0-.1-.32C1.1 2.44 1 2.4.88 2.4a.48.48 0 0 0-.34.1.33.33 0 0 0-.12.25c0 .11.02.23.05.34l.05.26a.33.33 0 0 1-.2.15 1 1 0 0 1-.28.04.78.78 0 0 1-.33-.08.87.87 0 0 1-.31-.28 1.48 1.48 0 0 1-.22-.5c-.06-.2-.08-.45-.08-.74 0-.45.1-.82.3-1.1.2-.3.46-.44.8-.44.23 0 .43.06.59.17.16.12.3.3.44.52l.24-.15A1.9 1.9 0 0 0 .82.25 1.5 1.5 0 0 0 0 0" transform="translate(107.3 106.97)"></path>
    <path d="M0 0h-1.75v.24a29.59 29.59 0 0 0 .33.05c.07.02.12.06.16.11.03.06.05.13.05.22v2.23a.45.45 0 0 1-.2.38.7.7 0 0 1-.2.07l-.25.04v.24l1.28.08.05-.05V.66c0-.08.01-.16.05-.21A.3.3 0 0 1-.33.32 1.25 1.25 0 0 1 0 .24Zm-.46 5.09a.54.54 0 0 0-.14-.37.44.44 0 0 0-.66 0c-.1.1-.14.2-.14.34 0 .13.05.25.14.35.1.1.2.15.32.15.14 0 .26-.05.35-.14.09-.1.13-.2.13-.33" transform="translate(110.8 107.07)"></path>
    <path d="M0 0c0-.25-.04-.5-.12-.75-.08-.25-.2-.45-.35-.63-.17-.2-.36-.34-.58-.43a1.9 1.9 0 0 0-1.41-.02 1.67 1.67 0 0 0-.94.98c-.09.24-.14.5-.14.8 0 .56.17 1.03.5 1.38.33.36.76.54 1.3.54.5 0 .92-.17 1.25-.5C-.17 1.01 0 .56 0 0m-.76 0c0 .18-.02.37-.06.57-.03.2-.09.38-.16.52a1 1 0 0 1-.3.37.77.77 0 0 1-.48.14.83.83 0 0 1-.48-.14c-.13-.1-.24-.22-.32-.39a1.7 1.7 0 0 1-.17-.5 3.35 3.35 0 0 1 .01-1.21c.04-.2.1-.38.18-.53.08-.16.19-.28.32-.37a.8.8 0 0 1 .46-.14c.31 0 .55.15.73.45.18.3.27.7.27 1.22m-.3 3.52c0-.1-.02-.17-.07-.23a27.73 27.73 0 0 0-1.3-1.06l-.14.12a56.69 56.69 0 0 1 .74 1.13c.08.13.15.21.22.26.07.04.15.07.25.07.08 0 .16-.03.21-.1a.28.28 0 0 0 .09-.19" transform="translate(114.78 108.91)"></path>
    <path d="M0 0h-1.77v.24a12.9 12.9 0 0 0 .35.05c.07.02.12.06.16.11.03.06.05.13.05.22v1.86c0 .25-.07.45-.19.59a.56.56 0 0 1-.44.2c-.13 0-.25-.01-.36-.05-.1-.04-.2-.1-.28-.15a.82.82 0 0 1-.2-.18 1.64 1.64 0 0 1-.1-.16V.65c0-.08.02-.15.05-.2.03-.06.09-.1.15-.13l.17-.05.19-.03V0H-4v.24a39.45 39.45 0 0 0 .33.05c.07.02.12.06.16.11.03.06.05.13.05.22v2.23a.5.5 0 0 1-.06.23.46.46 0 0 1-.14.17.51.51 0 0 1-.17.06l-.2.03v.24l1.2.08.05-.05V3.1h.02a11.16 11.16 0 0 0 .47.41 1.32 1.32 0 0 0 .74.2c.35 0 .6-.1.77-.32.17-.22.26-.5.26-.86V.65c0-.09.01-.16.04-.21A.3.3 0 0 1-.33.3l.15-.05L0 .24Z" transform="translate(119.3 107.07)"></path>
    <path d="M0 0h-.28C-.33.2-.43.4-.6.62c-.16.22-.32.34-.46.36a3.35 3.35 0 0 1-.63.03h-.87v-2.09h.6c.18 0 .32.02.42.06.1.04.19.1.26.17.05.06.1.14.13.25.04.12.07.24.08.37h.28v-2.05h-.28a1.58 1.58 0 0 1-.21.67.55.55 0 0 1-.28.18c-.11.03-.24.05-.4.05h-.6v-1.79c0-.08.02-.15.05-.22a.35.35 0 0 1 .17-.15 1.96 1.96 0 0 1 .52-.1v-.26h-2.26v.26a14.92 14.92 0 0 1 .53.06.3.3 0 0 1 .16.15c.03.06.05.13.05.22V.55c0 .08-.02.15-.04.21-.03.06-.09.11-.17.15l-.27.09-.26.04v.26H0z" transform="translate(125.68 110.97)"></path>
    <path d="M0 0c0-.25-.04-.5-.12-.75-.08-.25-.2-.45-.35-.63-.17-.2-.36-.34-.58-.43a1.9 1.9 0 0 0-1.41-.02 1.67 1.67 0 0 0-.94.98c-.09.24-.14.5-.14.8 0 .56.17 1.03.5 1.38.33.36.76.54 1.3.54.5 0 .92-.17 1.25-.5C-.17 1.01 0 .56 0 0m-.76 0c0 .18-.02.37-.06.57-.03.2-.09.38-.16.52a1 1 0 0 1-.3.37.77.77 0 0 1-.48.14.83.83 0 0 1-.48-.14c-.13-.1-.24-.22-.32-.39a1.7 1.7 0 0 1-.17-.5 3.35 3.35 0 0 1 .01-1.21c.04-.2.1-.38.18-.53.08-.16.19-.28.32-.37a.8.8 0 0 1 .46-.14c.31 0 .55.15.73.45.18.3.27.7.27 1.22" transform="translate(129.58 108.91)"></path>
    <path d="M0 0a.6.6 0 0 0-.1-.33c-.05-.1-.15-.15-.27-.15-.14 0-.25.04-.32.1a.33.33 0 0 0-.1.24v.15c.02.04.02.09.03.13a.81.81 0 0 1-.4-.14c-.16-.09-.29-.22-.4-.4v-2.1a.4.4 0 0 1 .05-.2.3.3 0 0 1 .16-.13 3.92 3.92 0 0 1 .49-.08v-.24h-1.9v.24a29.59 29.59 0 0 0 .32.05c.07.02.12.06.15.11a.4.4 0 0 1 .05.22V-.3a.5.5 0 0 1-.2.4.53.53 0 0 1-.16.06l-.21.03v.24l1.2.08.06-.05v-.51h.01c.16.2.32.35.5.45.2.1.37.15.52.15A.5.5 0 0 0-.14.4C-.04.3 0 .17 0 0" transform="translate(132.87 110.22)"></path>
    <path d="M0 0a5.35 5.35 0 0 0-.3-.1 1.07 1.07 0 0 0-.3-.04c-.19 0-.34.04-.46.13a.63.63 0 0 0-.21.4h-.02a1.43 1.43 0 0 0-1.17-.54c-.28 0-.5.08-.67.24a.86.86 0 0 0-.27.66c0 .13.02.26.06.37a.9.9 0 0 0 .42.5l.28.13.67.23c.34.11.57.2.68.27v.36c0 .03 0 .1-.02.18a.75.75 0 0 1-.3.5.62.62 0 0 1-.37.1.85.85 0 0 1-.31-.06.58.58 0 0 1-.2-.12c0-.05 0-.12.03-.22l.03-.26a.31.31 0 0 0-.11-.23.45.45 0 0 0-.32-.11c-.13 0-.22.04-.27.13a.52.52 0 0 0-.1.29c0 .11.05.22.13.32s.18.2.3.28a1.73 1.73 0 0 0 .87.24c.2 0 .38-.01.53-.04a1 1 0 0 0 .42-.18c.13-.1.22-.21.29-.37.06-.15.1-.35.1-.6A36.26 36.26 0 0 0-.63.65c0-.1.02-.18.05-.23A.4.4 0 0 1-.42.28c.04-.03.1-.04.18-.04H0Zm-1.28 1.94a7.8 7.8 0 0 1-.55-.18c-.15-.06-.3-.14-.43-.22a.98.98 0 0 1-.3-.3.75.75 0 0 1-.1-.4c0-.2.05-.36.16-.45.1-.1.24-.15.4-.15.18 0 .33.04.46.13.14.08.25.18.34.3z" transform="translate(136.6 107.13)"></path>
    <path d="M0 0h-1.76v.24l.18.02c.06 0 .11.01.15.03.07.02.12.06.16.11a.4.4 0 0 1 .05.22V4.8a.55.55 0 0 1-.2.43.77.77 0 0 1-.25.08l-.28.04v.24l1.36.08.05-.06V.66c0-.08.02-.16.05-.21A.3.3 0 0 1-.34.32 1.1 1.1 0 0 1 0 .24Z" transform="translate(138.66 107.07)"></path>
    <path d="m0 0-1.26-.08-.06.05v.34h-.03A1.5 1.5 0 0 0-2.4-.16c-.2 0-.4.05-.6.14-.18.1-.35.22-.5.39-.14.17-.25.37-.33.6a2.31 2.31 0 0 0 0 1.54c.1.23.22.44.38.61.15.17.33.3.55.4.21.1.43.14.66.14a1.94 1.94 0 0 0 .91-.23v1.26c0 .1-.01.2-.05.28a.43.43 0 0 1-.14.2.72.72 0 0 1-.28.1 3.4 3.4 0 0 1-.37.04v.23l1.48.08.05-.05V.68c0-.08.02-.16.05-.22A.43.43 0 0 1-.44.31a.46.46 0 0 1 .2-.05L0 .24Zm-1.33.64v2.11a.97.97 0 0 1-.26.4.85.85 0 0 1-.99.1 1.07 1.07 0 0 1-.32-.32 1.68 1.68 0 0 1-.22-.52 2.88 2.88 0 0 1-.02-1.26c.04-.17.1-.33.2-.47.09-.14.2-.25.33-.33.13-.09.29-.13.47-.13.2 0 .36.05.49.13.13.09.23.18.32.28" transform="translate(101.86 98.54)"></path>
    <path d="M0 0a1.85 1.85 0 0 0-.6-.69 1.53 1.53 0 0 0-.89-.26c-.29 0-.54.06-.76.16-.22.1-.4.24-.54.42-.14.17-.25.38-.32.61a2.6 2.6 0 0 0 0 1.44c.08.22.2.43.34.6a1.5 1.5 0 0 0 1.21.58c.26 0 .5-.03.68-.12.19-.08.34-.2.46-.34.11-.13.2-.3.25-.48.06-.19.08-.39.08-.6v-.25h-2.4c0-.24.03-.45.08-.65.04-.19.11-.36.2-.5.1-.15.23-.26.38-.34.16-.09.34-.13.55-.13.22 0 .4.05.57.16.15.1.3.28.45.55zm-.81 1.38c0 .14-.01.28-.04.44-.02.15-.06.28-.1.39a.74.74 0 0 1-.24.27c-.1.08-.22.11-.38.11a.79.79 0 0 1-.64-.32 1.49 1.49 0 0 1-.27-.9z" transform="translate(105.42 99.32)"></path>
    <path d="M0 0a6.45 6.45 0 0 1-.48-.1.32.32 0 0 1-.15-.16.58.58 0 0 1-.05-.23v-.4a18.73 18.73 0 0 1 .02-.86 5.5 5.5 0 0 0-.97-.33 4 4 0 0 0-.95-.12 2.54 2.54 0 0 0-1.77.72c-.23.23-.42.51-.55.85a3.04 3.04 0 0 0-.01 2.22 2.62 2.62 0 0 0 1.38 1.45c.32.14.67.2 1.03.2a2.51 2.51 0 0 0 1.35-.36l.15.25h.3l.02-1.82h-.3c-.05.2-.11.4-.19.6-.07.19-.17.36-.29.51-.12.16-.27.28-.44.37-.17.1-.38.14-.62.14-.26 0-.5-.05-.7-.16-.2-.1-.38-.26-.54-.47-.15-.2-.26-.46-.34-.76a3.95 3.95 0 0 1 0-1.96c.08-.29.2-.54.34-.75a1.58 1.58 0 0 1 1.34-.7c.22 0 .42.03.6.1.18.06.3.13.37.2l.04.39V-.57c0 .1-.02.2-.05.28a.3.3 0 0 1-.17.17 1.2 1.2 0 0 1-.33.09l-.32.03v.27H0z" transform="translate(112.79 100.55)"></path>
    <path d="M0 0h-1.75v.24a29.59 29.59 0 0 0 .33.05c.07.02.12.06.16.11.03.06.05.13.05.22v2.23a.45.45 0 0 1-.2.38.7.7 0 0 1-.2.07l-.25.04v.24l1.28.08.05-.05V.66c0-.08.01-.16.05-.21.03-.06.08-.1.15-.13A1.2 1.2 0 0 1 0 .24Zm-.46 5.09a.54.54 0 0 0-.14-.37.44.44 0 0 0-.66 0c-.1.1-.14.2-.14.34 0 .13.05.25.14.35.1.1.2.15.32.15.14 0 .26-.05.35-.14.09-.1.13-.2.13-.33" transform="translate(114.86 98.47)"></path>
    <path d="M0 0c.14-.17.26-.37.34-.6A2.35 2.35 0 0 0 .3-2.15a1.78 1.78 0 0 0-.93-1c-.2-.09-.4-.13-.63-.13-.22 0-.4.02-.54.07s-.25.1-.34.17h-.03v-1.09c0-.08.02-.16.05-.22a.3.3 0 0 1 .16-.12 1.75 1.75 0 0 1 .52-.1v-.25h-2.02v.25a6.76 6.76 0 0 1 .41.05c.08.02.13.07.16.13a.5.5 0 0 1 .04.21v3.85c0 .08-.02.15-.05.22a.46.46 0 0 1-.15.16.5.5 0 0 1-.18.07c-.08.02-.15.03-.23.03v.24l1.23.08.06-.04v-.4l.02-.01c.13.14.29.26.48.36.19.1.37.15.56.15.22 0 .43-.05.62-.14C-.3.29-.14.15 0 0m-.6-2.6c.1.15.17.33.22.53a2.94 2.94 0 0 1 0 1.22c-.03.2-.1.35-.17.5-.09.14-.2.25-.33.34a.87.87 0 0 1-.49.13.86.86 0 0 1-.46-.12 1.42 1.42 0 0 1-.33-.28v-2.14a.95.95 0 0 1 .52-.54.83.83 0 0 1 .72.05c.13.08.24.18.32.3" transform="translate(118.6 101.66)"></path>
    <path d="m0 0-1.18-.08-.06.05v.46h-.02a7.48 7.48 0 0 0-.2-.2 1.6 1.6 0 0 0-.57-.34 1.4 1.4 0 0 0-.43-.05c-.32 0-.57.1-.73.32-.17.2-.26.5-.26.9V2.8c0 .08-.01.16-.04.22a.47.47 0 0 1-.15.15.46.46 0 0 1-.17.07l-.2.03v.24l1.2.09.06-.06v-2.5c0-.27.05-.47.17-.6.12-.13.26-.2.42-.2.14 0 .26.02.36.07a1.02 1.02 0 0 1 .44.3l.12.16v2.05a.44.44 0 0 1-.2.38.41.41 0 0 1-.2.05l-.29.01v.25l1.32.08.06-.05V.67c0-.08.01-.15.05-.2C-.47.4-.42.34-.36.3c.04-.03.1-.04.16-.05L0 .24Z" transform="translate(123.47 98.54)"></path>
    <path d="M0 0h-2.93v.2l2.05 3.12h-.5l-.5-.01a1 1 0 0 1-.33-.08c-.07-.02-.14-.1-.2-.23-.06-.12-.11-.29-.15-.5h-.23v1.12h2.77v-.15L-2.1.3h.29l.34-.01a10.87 10.87 0 0 1 .72.02c.1 0 .17.04.22.1.05.06.09.13.11.21a5.02 5.02 0 0 1 .2.66H0z" transform="translate(126.78 98.47)"></path>
    <path d="M0 0h-1.1l-.6.89a19 19 0 0 1-.68.92l-.3-.28V.67c0-.09.01-.16.04-.22.04-.06.09-.1.16-.13a.95.95 0 0 1 .35-.08V0H-3.9v.24l.18.02c.06 0 .1.01.15.03.07.02.12.06.15.11a.4.4 0 0 1 .05.22v4.2c0 .1-.02.18-.05.26a.44.44 0 0 1-.15.18.49.49 0 0 1-.24.08l-.26.02v.24l1.33.08.06-.06V1.8l.61.61a12.01 12.01 0 0 1 .63.67l.03.09c0 .06-.05.11-.16.15l-.3.06v.24h1.59v-.23a2.47 2.47 0 0 1-1.16-.72l-.45-.43c.2-.25.43-.54.68-.89L-.66.6c.1-.14.2-.23.29-.28A.97.97 0 0 1 0 .24Z" transform="translate(131.08 98.47)"></path>
    <path d="M0 0c0-.25-.04-.5-.12-.75-.08-.25-.2-.45-.35-.63-.17-.2-.36-.34-.58-.43a1.9 1.9 0 0 0-1.41-.02 1.67 1.67 0 0 0-.94.98c-.09.24-.14.5-.14.8 0 .56.17 1.03.5 1.38.33.36.76.54 1.3.54.5 0 .92-.17 1.25-.5C-.17 1.01 0 .56 0 0m-.76 0c0 .18-.02.37-.06.57-.03.2-.09.38-.16.52a1 1 0 0 1-.3.37.77.77 0 0 1-.48.14.83.83 0 0 1-.48-.14c-.13-.1-.24-.22-.32-.39a1.7 1.7 0 0 1-.17-.5 3.36 3.36 0 0 1 .01-1.21c.04-.2.1-.38.18-.53.08-.16.19-.28.32-.37a.8.8 0 0 1 .46-.14c.31 0 .55.15.73.45.18.3.27.7.27 1.22" transform="translate(134.8 100.32)"></path>
    <path d="M0 0a5.35 5.35 0 0 0-.3-.1 1.07 1.07 0 0 0-.3-.04c-.19 0-.34.04-.46.13a.63.63 0 0 0-.21.4h-.02a1.43 1.43 0 0 0-1.17-.54c-.28 0-.5.08-.67.24a.86.86 0 0 0-.27.66c0 .13.02.26.06.37a.9.9 0 0 0 .42.5l.28.13.67.23c.34.11.57.2.68.27v.36c0 .03 0 .1-.02.18a.75.75 0 0 1-.3.5.62.62 0 0 1-.37.1.85.85 0 0 1-.31-.06.58.58 0 0 1-.2-.12c0-.05 0-.12.03-.22l.03-.26a.31.31 0 0 0-.11-.23.45.45 0 0 0-.32-.11c-.13 0-.22.04-.27.13a.52.52 0 0 0-.1.29c0 .11.05.22.13.32s.18.2.3.28a1.73 1.73 0 0 0 .87.24c.2 0 .38-.01.53-.04a1 1 0 0 0 .42-.18c.13-.1.22-.21.29-.37.06-.15.1-.35.1-.6A36.26 36.26 0 0 0-.63.65c0-.1.02-.18.05-.23A.4.4 0 0 1-.42.28c.04-.03.1-.04.18-.04H0Zm-1.28 1.94a7.8 7.8 0 0 1-.55-.18c-.15-.06-.3-.14-.43-.22a.98.98 0 0 1-.3-.3.75.75 0 0 1-.1-.4c0-.2.05-.36.16-.45.1-.1.24-.15.4-.15.18 0 .33.04.46.13.14.08.25.18.34.3z" transform="translate(138.75 98.54)"></path>
    <path d="M0 0a25.92 25.92 0 0 1-41.28 20.88 22.4 22.4 0 0 0 10.61 2.58A24.51 24.51 0 0 0-7.97 8.18h-8.72a19.11 19.11 0 0 1-15.89 8.27c-9.71 0-18.63-5.88-18.63-17.25 0-6.96 2.49-12.65 6.3-16.84A25.92 25.92 0 0 1 0 0m-6.3 3.22A19.9 19.9 0 1 0-45.8.63a12.15 12.15 0 0 0 15.9 10.71A12.2 12.2 0 1 1-14.35-4.09H-26.1v7.31h19.27z" transform="translate(249.9 113.57)"></path>
  </g>
</svg>
