<?xml version="1.0" encoding="utf-8"?>
<svg xmlns="http://www.w3.org/2000/svg" viewBox="90.18 117.3 351.65 69">
  <style>
    path {
      fill: white;
    }
  </style>
  <g transform="matrix(1.33 0 0 -1.33 0 302.85)">
    <path d="M0 0a5.14 5.14 0 0 0-4.13-3.57v-4.15c1.42-.35 1.74-1.26 3.91-1.39C2.05-8.97 2.41-8 4.02-7.69v4.17A5.27 5.27 0 0 0 0 0" transform="translate(182.27 118.8)"></path>
    <path d="M0 0a5.14 5.14 0 0 0-4.12-3.59v-4.14c1.5-.34 1.9-1.27 4.11-1.4C2.15-9 2.58-8.1 4.02-7.75v4.2A5.25 5.25 0 0 0 0 0" transform="translate(171.62 118.82)"></path>
    <path d="M0 0h-40.9l-.05-32.84c-.26-10.22 10.26-18.46 20.47-18.23C-10.28-51.32.2-43.1-.04-32.89zm-7.87-40.47c-.53.24-1.14.42-2.13.42-2.6 0-2.6-1.28-5.3-1.52-2.7.24-2.53 1.52-5.15 1.52-2.61 0-2.61-1.28-5.3-1.52-2.7.24-2.7 1.52-5.31 1.52-1.08 0-1.7-.22-2.28-.5-.45.61-.86 1.24-1.22 1.89 1.12.46 1.67 1.08 3.5 1.08 2.61 0 2.61-1.27 5.3-1.51 2.7.24 2.7 1.51 5.31 1.51 2.62 0 2.45-1.27 5.15-1.51 2.7.24 2.7 1.51 5.3 1.51 1.75 0 2.33-.57 3.33-1.02-.35-.64-.76-1.27-1.2-1.87m2.2 4.1c-1.76.41-2.08 1.35-4.33 1.35-2.6 0-2.6-1.28-5.3-1.52-2.7.24-2.53 1.52-5.15 1.52-2.61 0-2.61-1.28-5.3-1.52-2.7.24-2.7 1.52-5.31 1.52-2.3 0-2.58-1-4.52-1.39-.27.76-.47 1.56-.6 2.37 2.5.23 2.6 1.5 5.12 1.5 2.61 0 2.61-1.36 5.3-1.53 2.7.17 2.7 1.52 5.31 1.52 2.62 0 2.45-1.35 5.15-1.52 2.7.17 2.7 1.52 5.3 1.52 2.48 0 2.61-1.21 4.91-1.48-.13-.8-.32-1.58-.59-2.35M-4.9-29v-2.48c-2.47.22-2.55 1.5-5.08 1.5-2.62 0-2.62-1.36-5.31-1.52-2.7.16-2.53 1.52-5.15 1.52-2.61 0-2.61-1.36-5.3-1.52-2.7.16-2.7 1.52-5.31 1.52-2.59 0-2.62-1.33-5.3-1.51l.02 2.48c2.11.15 2.58 1 3.96 1.36v4.21c-2.26.5-4.85 2.3-4.32 6.95 0 4.15 3.02 11.02 5.64 10.7 2.1.26 4.53-4.41 5.3-8.39.76 3.98 3.15 8.65 5.31 8.39 2.07.26 4.53-4.29 5.35-8.23.82 3.94 3.28 8.5 5.35 8.23 2.53.32 5.55-6.55 5.55-10.7.56-4.82-2.13-6.58-4.36-7v-4.2c1.27-.36 1.76-1.14 3.65-1.31" transform="translate(197.36 138.72)"></path>
    <path d="M0 0c0 14.31-11.87 25.92-26.5 25.92-5.88 0-11.31-1.87-15.7-5.04a23.32 23.32 0 0 0 10.84 2.58c10.5 0 19.49-6.32 23.22-15.28h-8.93a19.68 19.68 0 0 1-16.24 8.27c-9.94 0-19.06-5.88-19.06-17.25 0-6.96 2.55-12.65 6.45-16.84a26.7 26.7 0 0 1 19.41-8.28C-11.87-25.92 0-14.32 0 0m-6.46 3.22c.2-1.11.3-2.25.3-3.42 0-11-9.1-19.9-20.35-19.9-11.24 0-20.35 8.9-20.35 19.9l.02.84a12.31 12.31 0 0 0 12.4 11.3c1.35 0 2.65-.2 3.87-.6A12.23 12.23 0 0 1-38.99-.2c0-6.74 5.59-12.2 12.48-12.2 5.5 0 10.17 3.47 11.83 8.3h-12v7.32h19.7z" transform="translate(262.98 113.57)"></path>
    <path d="m0 0-2.67 7.08H-4.7L-7.37 0h1.85l.46 1.3h2.73l.45-1.3Zm-2.78 2.61h-1.83l.92 2.62ZM-9.62 0h1.77v7.13h-1.77V2.7l-2.95 4.42h-1.76V0h1.76v4.38zm-6.08 1.31c.27.47.4 1.03.4 1.7v4.12h-1.76V3c0-.47-.1-.83-.32-1.08-.22-.24-.54-.37-.95-.37-.41 0-.72.13-.94.37-.22.25-.33.61-.33 1.08v4.12h-1.75V3c0-.67.13-1.24.38-1.7.26-.46.6-.8 1.05-1.04.45-.23.97-.34 1.55-.34.59 0 1.11.12 1.57.35.47.23.83.58 1.1 1.04M-27.36 0h5.18v1.4h-3.22l3.2 4.42v1.3h-5.12V5.76h3.13l-3.17-4.44ZM-30 0h1.77v7.13H-30zm-.53 0-2.94 3.64 2.94 3.49h-2.12l-2.49-3.14v3.14h-1.76V0h1.76v3.2l2.48-3.2Zm-7.24 0-1.73 2.8c.56.14.98.39 1.27.75.3.36.44.8.44 1.32a2.05 2.05 0 0 1-1.2 1.96c-.4.2-.88.3-1.46.3h-3V0h1.76v2.7h.4l1.57-2.7Zm-1.81 4.77c0-.3-.08-.52-.25-.67-.16-.15-.42-.23-.77-.23h-1.1v1.8h1.1c.34 0 .6-.08.77-.24a.88.88 0 0 0 .25-.66m-5.15-3.07c.33.56.49 1.19.49 1.89s-.16 1.32-.48 1.88c-.33.55-.77.99-1.33 1.3-.56.31-1.18.47-1.87.47-.68 0-1.3-.16-1.86-.47a3.5 3.5 0 0 1-1.33-1.3 3.64 3.64 0 0 1-.49-1.88c0-.7.16-1.33.49-1.89.32-.55.77-.99 1.33-1.3a3.76 3.76 0 0 1 1.86-.47c.68 0 1.3.16 1.86.47.56.31 1 .75 1.33 1.3m-1.3 1.89a2.1 2.1 0 0 0-.52-1.5c-.34-.36-.8-.55-1.37-.55-.58 0-1.04.19-1.38.56-.34.37-.5.86-.5 1.49s.16 1.13.5 1.5c.34.36.8.55 1.38.55.58 0 1.03-.19 1.38-.56.34-.37.5-.87.5-1.5m-7.65 2.18h1.98v1.37h-10.16V0h4.54v1.38h-2.77v1.58h2.46v1.3h-2.46v1.5h4.63V0h1.78z" transform="translate(332.2 116.88)"></path>
    <path d="M0 0v7.13h-1.76V2.7l-2.95 4.42h-1.76V0h1.76v4.38L-1.76 0Zm-9.25 0h1.77v7.13h-1.77zm-2.35 0h1.88l-2.67 7.08h-2.03L-17.1 0h1.85l.46 1.3h2.73zm-.9 2.61h-1.83l.92 2.62zM-17.22 0l-1.74 2.8c.56.14.99.39 1.28.75.29.36.43.8.43 1.32a2.05 2.05 0 0 1-1.2 1.96c-.39.2-.88.3-1.45.3h-3.01V0h1.76v2.7h.4l1.58-2.7Zm-1.82 4.77c0-.3-.08-.52-.25-.67-.16-.15-.42-.23-.77-.23h-1.1v1.8h1.1c.34 0 .6-.08.77-.24a.88.88 0 0 0 .25-.66m-5.15-3.07c.33.56.5 1.19.5 1.89s-.17 1.32-.5 1.88c-.32.55-.76.99-1.32 1.3-.56.31-1.18.47-1.87.47-.68 0-1.3-.16-1.86-.47a3.5 3.5 0 0 1-1.82-3.18c0-.7.17-1.33.5-1.89.32-.55.76-.99 1.32-1.3a3.76 3.76 0 0 1 1.86-.47c.68 0 1.3.16 1.86.47.56.31 1 .75 1.33 1.3m-1.3 1.89a2.1 2.1 0 0 0-.52-1.5c-.34-.36-.8-.55-1.37-.55-.58 0-1.03.19-1.37.56-.34.37-.51.86-.51 1.49s.17 1.13.5 1.5c.35.36.8.55 1.38.55.58 0 1.04-.19 1.38-.56.34-.37.5-.87.5-1.5" transform="translate(301.09 106.06)"></path>
    <path d="M0 0a4.2 4.2 0 0 1-.62-.13c-.15-.04-.25-.12-.3-.23a.89.89 0 0 1-.07-.35v-.9a16.74 16.74 0 0 1 .02-.86 6.6 6.6 0 0 0-1.6-.61c-.7-.2-1.36-.3-1.95-.3-.56 0-1.08.1-1.57.26a3.62 3.62 0 0 0-2.16 2.04c-.21.5-.31 1.08-.31 1.73 0 .61.1 1.17.3 1.69a3.76 3.76 0 0 0 2.2 2.18 4.9 4.9 0 0 0 3.9-.2l.34.3h.47l.05-2.85h-.47a5.1 5.1 0 0 1-1 1.9 1.9 1.9 0 0 1-1.45.62c-.7 0-1.23-.3-1.6-.92A4.83 4.83 0 0 1-6.4.83c0-1.14.18-2.03.55-2.68.37-.65.9-.97 1.58-.97.32 0 .6.05.85.14.25.1.44.21.58.34v1.58a.7.7 0 0 1-.07.33.58.58 0 0 1-.29.23c-.1.05-.24.1-.4.13L-4 0v.43h4z" transform="translate(90.6 122.87)"></path>
    <path d="M0 0c0-.28-.1-.51-.32-.71-.2-.2-.46-.3-.75-.3-.3 0-.55.1-.76.3a.93.93 0 0 0-.31.71c0 .28.1.52.31.71.21.2.47.3.76.3.3 0 .55-.1.76-.3C-.12.51 0 .28 0 0m.8-7.47h-3.44v.4a5.91 5.91 0 0 1 .51.08c.12.05.2.1.25.19.04.08.07.2.07.33v3.18a.66.66 0 0 1-.3.57 1.95 1.95 0 0 1-.66.2v.4l2.66.15.08-.08V-6.4c0-.13.03-.24.08-.33a.5.5 0 0 1 .23-.2 1.86 1.86 0 0 1 .51-.14z" transform="translate(93.3 127.18)"></path>
    <path d="M0 0c0 .27-.02.54-.06.79-.04.25-.1.47-.21.67-.1.2-.23.35-.39.47a.97.97 0 0 1-.59.17c-.23 0-.42-.04-.56-.12a1.3 1.3 0 0 1-.37-.32v-3.1A1.68 1.68 0 0 1-1.87-2c.1-.1.2-.18.31-.22a.97.97 0 0 1 .38-.07c.36 0 .64.19.86.58.21.39.32.96.32 1.71m1.95.02c0-.77-.26-1.43-.76-1.98a2.52 2.52 0 0 0-1.94-.83c-.35 0-.63.04-.85.1-.21.08-.4.17-.53.27h-.05v-1.54c0-.13.03-.24.09-.33a.5.5 0 0 1 .23-.21A4.04 4.04 0 0 1-1-4.67v-.4h-3.92v.4a5.44 5.44 0 0 1 .65.1c.12.04.2.11.24.2.04.1.06.22.06.34v5.6a.9.9 0 0 1-.08.32.66.66 0 0 1-.22.24.99.99 0 0 1-.28.12l-.36.06v.4l2.65.14.08-.07v-.6l.05-.02c.24.25.5.44.8.57.28.14.57.2.86.2.74 0 1.34-.26 1.77-.8.43-.53.65-1.23.65-2.1" transform="translate(98.98 122.36)"></path>
    <path d="m0 0-2.59-.16-.08.08v.71h-.03c-.13-.1-.25-.22-.36-.33A2.8 2.8 0 0 0-4-.2c-.17-.04-.41-.07-.72-.07-.55 0-.97.17-1.26.5-.29.33-.44.8-.44 1.4V4.1a.66.66 0 0 1-.3.59.69.69 0 0 1-.27.11c-.12.03-.22.04-.32.05v.4l2.63.14.06-.08V1.66c0-.38.07-.65.21-.83a.71.71 0 0 1 .59-.27c.25 0 .49.07.7.2.2.14.34.28.44.43v2.96c0 .12-.02.23-.07.33a.6.6 0 0 1-.2.24.64.64 0 0 1-.29.09 7.1 7.1 0 0 1-.37.03v.4l2.64.14.08-.08V1.07c0-.13.03-.23.07-.32A.66.66 0 0 1-.59.52.68.68 0 0 1-.33.43L0 .4Z" transform="translate(108.43 119.83)"></path>
    <path d="M0 0h-5.34v.38l3.11 4.56-1.16-.02a2.58 2.58 0 0 1-.82-.13c-.07-.03-.16-.16-.27-.4-.11-.24-.2-.49-.27-.75h-.38v1.8h5.05v-.35L-3.21.5a17.23 17.23 0 0 0 .86 0A12.96 12.96 0 0 1-1.3.54a.6.6 0 0 1 .35.15c.09.08.16.18.21.3a6.5 6.5 0 0 1 .36 1.05H0z" transform="translate(113.86 119.71)"></path>
    <path d="M0 0h-2.56a22.29 22.29 0 0 1-1.6 2.5l-.32-.28v-1.2a.8.8 0 0 1 .06-.31.37.37 0 0 1 .22-.19A1.41 1.41 0 0 1-3.71.4V0h-3.37v.4a4.19 4.19 0 0 1 .51.08c.12.04.2.1.24.19.04.08.06.2.06.33v6.1c0 .12-.03.25-.08.38a.6.6 0 0 1-.23.3.98.98 0 0 1-.3.1l-.38.06v.4l2.7.14.08-.09V2.74a46.57 46.57 0 0 1 1.71 1.63c.12.12.19.21.2.28l.02.11c0 .07-.06.13-.17.17-.12.04-.3.08-.52.11v.4h2.76v-.39c-.36-.1-.64-.2-.83-.28a4.7 4.7 0 0 1-1.05-.67c-.14-.1-.3-.24-.48-.4A774.22 774.22 0 0 0-.92.85.83.83 0 0 1-.5.51C-.33.45-.17.4 0 .4Z" transform="translate(121.12 119.71)"></path>
    <path d="M0 0c.08.2.14.45.18.74a8 8 0 0 1 0 1.9 3.3 3.3 0 0 1-.16.78c-.1.23-.21.4-.37.54a.87.87 0 0 1-.58.2.87.87 0 0 1-.61-.22 1.4 1.4 0 0 1-.36-.55 3.1 3.1 0 0 1-.16-.73 8.48 8.48 0 0 1 0-1.86c.02-.27.08-.53.18-.79.08-.23.2-.4.36-.54.15-.13.35-.2.6-.2.2 0 .4.07.55.19.16.12.28.3.37.54m1.39 3.8c.27-.26.47-.56.61-.9A3.16 3.16 0 0 0 2 .6a2.5 2.5 0 0 0-.6-.93A2.94 2.94 0 0 0 .36-.95c-.4-.14-.85-.22-1.36-.22-.44 0-.85.07-1.22.2-.37.12-.7.31-.98.57-.28.24-.5.55-.65.9-.16.37-.24.77-.24 1.21A2.64 2.64 0 0 0-2.25 4.4c.39.14.82.21 1.31.21.5 0 .95-.07 1.34-.21.38-.14.71-.34.99-.6" transform="translate(125.06 120.7)"></path>
    <path d="m0 0-.6-.24c-.2-.09-.37-.18-.5-.28-.13-.1-.23-.23-.31-.4a1.28 1.28 0 0 1-.12-.56c0-.28.07-.49.2-.62.13-.12.29-.19.47-.19.2 0 .37.04.5.12.13.09.24.19.34.3zm2.7-2.85a3.95 3.95 0 0 0-.57-.2 2.61 2.61 0 0 0-.69-.08c-.44 0-.77.06-.98.2a1 1 0 0 0-.43.57H0a3.41 3.41 0 0 0-.36-.32 2.78 2.78 0 0 0-.86-.4 2.76 2.76 0 0 0-.66-.06c-.42 0-.78.12-1.07.37-.3.25-.45.58-.45 1 0 .23.03.44.1.6a1.36 1.36 0 0 0 .66.74l.47.21c.32.12.71.25 1.17.37.46.14.79.25 1 .35v.53c0 .1 0 .21-.02.36s-.05.28-.1.38a.72.72 0 0 1-.23.3.7.7 0 0 1-.43.12 1 1 0 0 1-.4-.07l-.26-.14c.01-.08.04-.19.1-.34.04-.15.07-.3.07-.43a.72.72 0 0 0-.05-.23.51.51 0 0 0-.14-.22.95.95 0 0 0-.28-.17C-1.84.55-2 .53-2.22.53c-.3 0-.53.07-.69.22a.76.76 0 0 0-.23.58c0 .2.08.38.24.55.16.16.36.3.59.4a4.17 4.17 0 0 0 1.61.34c.35 0 .67-.02.97-.06.29-.04.55-.13.79-.26.22-.13.4-.31.53-.55.14-.25.2-.56.2-.96a49.73 49.73 0 0 0-.05-2.58c0-.16.03-.3.08-.39.04-.1.12-.17.22-.21a.8.8 0 0 1 .3-.06h.35z" transform="translate(131.2 122.68)"></path>
    <path d="M0 0h-2.56a22.29 22.29 0 0 1-1.6 2.5l-.32-.28v-1.2a.8.8 0 0 1 .06-.31.37.37 0 0 1 .22-.19A1.41 1.41 0 0 1-3.71.4V0h-3.37v.4a4.19 4.19 0 0 1 .51.08c.12.04.2.1.24.19.04.08.06.2.06.33v6.1c0 .12-.03.25-.08.38a.6.6 0 0 1-.23.3.98.98 0 0 1-.3.1l-.38.06v.4l2.7.14.08-.09V2.74a46.57 46.57 0 0 1 1.71 1.63c.12.12.19.21.2.28l.02.11c0 .07-.06.13-.17.17-.12.04-.3.08-.52.11v.4h2.76v-.39c-.36-.1-.64-.2-.83-.28a4.7 4.7 0 0 1-1.05-.67c-.14-.1-.3-.24-.48-.4A774.22 774.22 0 0 0-.92.85.83.83 0 0 1-.5.51C-.33.45-.17.4 0 .4Z" transform="translate(141 119.71)"></path>
    <path d="M0 0c.08.2.14.45.18.74a8 8 0 0 1 0 1.9 3.3 3.3 0 0 1-.16.78c-.1.23-.21.4-.37.54a.87.87 0 0 1-.58.2.87.87 0 0 1-.61-.22 1.4 1.4 0 0 1-.36-.55 3.1 3.1 0 0 1-.16-.73 8.48 8.48 0 0 1 0-1.86c.02-.27.08-.53.18-.79.08-.23.2-.4.36-.54.15-.13.35-.2.6-.2.2 0 .4.07.55.19.16.12.28.3.37.54m1.39 3.8c.27-.26.47-.56.61-.9A3.16 3.16 0 0 0 2 .6a2.5 2.5 0 0 0-.6-.93A2.94 2.94 0 0 0 .36-.95c-.4-.14-.85-.22-1.36-.22-.44 0-.85.07-1.22.2-.37.12-.7.31-.98.57-.28.24-.5.55-.65.9-.16.37-.24.77-.24 1.21A2.64 2.64 0 0 0-2.25 4.4c.39.14.83.21 1.31.21.5 0 .95-.07 1.34-.21.38-.14.71-.34.99-.6" transform="translate(144.93 120.7)"></path>
    <path d="M0 0h-.42c-.1.3-.3.62-.56.96-.27.34-.52.53-.76.56a6.04 6.04 0 0 1-.93.06h-1.2v-3.05h.77c.22 0 .4.03.56.08a1 1 0 0 1 .43.26c.09.1.18.24.26.46.09.21.14.4.16.55h.4V-3.4h-.4c-.02.16-.07.36-.17.6s-.18.4-.25.47c-.1.11-.24.2-.4.26a1.8 1.8 0 0 1-.59.08h-.77v-2.57c0-.13.03-.24.08-.34.05-.1.14-.17.28-.23l.33-.09.41-.06v-.43h-4.15v.43l.42.05c.17.02.3.04.36.07a.5.5 0 0 1 .27.22c.05.09.08.2.08.35V.9c0 .12-.02.23-.07.32-.05.1-.14.18-.28.24l-.4.12-.38.07v.43H0z" transform="translate(74.75 111.25)"></path>
    <path d="M0 0c.08.2.14.45.18.74a8 8 0 0 1 0 1.9 3.3 3.3 0 0 1-.16.78c-.1.23-.21.4-.37.54a.87.87 0 0 1-.58.2.87.87 0 0 1-.61-.22 1.4 1.4 0 0 1-.36-.55 3.1 3.1 0 0 1-.16-.73 8.48 8.48 0 0 1 0-1.86c.02-.27.08-.53.18-.79.08-.23.2-.4.36-.54.15-.13.35-.2.6-.2.2 0 .4.07.55.19.16.12.28.3.37.54m1.39 3.8c.27-.26.47-.56.61-.9A3.16 3.16 0 0 0 2 .6a2.5 2.5 0 0 0-.6-.93A2.93 2.93 0 0 0 .36-.95c-.4-.14-.85-.22-1.36-.22-.44 0-.85.07-1.22.2-.37.12-.7.31-.98.57-.28.24-.5.55-.65.9-.16.37-.24.77-.24 1.21A2.64 2.64 0 0 0-2.25 4.4c.39.14.83.21 1.31.21.5 0 .95-.07 1.34-.21.38-.14.71-.34.99-.6" transform="translate(79.11 106.55)"></path>
    <path d="M0 0c0-.28-.09-.52-.26-.73a.82.82 0 0 0-.67-.32c-.26 0-.48.07-.67.2-.18.14-.27.34-.27.6 0 .13 0 .23.02.3l.05.2c-.16-.01-.34-.07-.52-.18-.19-.1-.35-.25-.5-.43v-3c0-.14.03-.24.07-.33.04-.08.1-.15.2-.2a3.86 3.86 0 0 1 .78-.15v-.4h-3.64v.4a5.2 5.2 0 0 1 .51.1c.12.03.2.1.24.18.05.08.07.2.07.33v3.18c0 .13-.03.25-.1.36a.82.82 0 0 1-.22.25.85.85 0 0 1-.24.1l-.33.07v.4l2.59.14.08-.08v-.8h.02c.25.3.52.52.8.69.28.16.57.25.87.25.34 0 .6-.1.81-.32C-.1.61 0 .33 0 0" transform="translate(87.15 109.99)"></path>
    <path d="m0 0-2.59-.16-.08.08v.71h-.03c-.13-.1-.25-.22-.36-.33A2.8 2.8 0 0 0-4-.2c-.17-.04-.41-.07-.73-.07-.54 0-.96.17-1.25.5-.29.33-.44.8-.44 1.4V4.1a.66.66 0 0 1-.3.59.69.69 0 0 1-.27.11c-.12.03-.22.04-.32.05v.4l2.63.14.06-.08V1.66c0-.38.07-.65.21-.83a.71.71 0 0 1 .59-.27c.25 0 .49.07.7.2.2.14.34.28.44.43v2.96c0 .12-.03.23-.07.33a.6.6 0 0 1-.2.24.64.64 0 0 1-.29.09 7.2 7.2 0 0 1-.37.03v.4l2.64.14.08-.08V1.07c0-.13.03-.23.07-.32A.66.66 0 0 1-.59.52.68.68 0 0 1-.33.43L0 .4Z" transform="translate(94.33 105.67)"></path>
    <path d="m0 0-1.11 2.8-1.1-2.8Zm4.05-3.14h-4.2v.42c.2.02.43.05.69.11.26.06.4.13.4.21a.61.61 0 0 1-.06.25L.22-.55h-2.66a18.2 18.2 0 0 1-.51-1.5l-.02-.19c0-.12.09-.22.26-.3.18-.08.47-.14.88-.18v-.42H-5v.42l.4.06c.15.03.27.07.36.13.15.09.27.2.38.32.1.13.19.28.26.46l1.26 3.08c.42 1.03.88 2.17 1.4 3.4H.14C.85 2.99 1.42 1.6 1.82.57c.4-1.02.74-1.87 1.02-2.54.05-.1.1-.2.18-.3a1.18 1.18 0 0 1 .66-.38l.37-.06Z" transform="translate(101.41 108.7)"></path>
    <path d="M0 0h-3.42v.4a5.91 5.91 0 0 1 .51.08c.12.05.2.1.24.2.04.07.07.18.07.32v6.07c0 .13-.03.26-.09.38a.65.65 0 0 1-.23.27 1.89 1.89 0 0 1-.72.21v.4l2.74.15.09-.09V1.07c0-.14.02-.25.07-.33a.48.48 0 0 1 .23-.2l.23-.09L0 .4Z" transform="translate(108.5 105.56)"></path>
    <path d="M0 0v3.1l-.1.27a.97.97 0 0 1-.88.58c-.37 0-.67-.2-.9-.61a3.6 3.6 0 0 1-.35-1.75c0-.3.03-.56.07-.8.04-.24.11-.45.22-.64a1.05 1.05 0 0 1 1-.62c.21 0 .4.04.54.13.14.08.28.2.4.34m2.77-.97L.09-1.14l-.08.07v.5l-.04.02a2.3 2.3 0 0 0-.72-.5 2.28 2.28 0 0 0-2.72.6c-.47.54-.7 1.25-.7 2.12 0 .77.26 1.43.79 1.98s1.17.83 1.92.83A3.33 3.33 0 0 0 0 4.15v1.8c0 .13-.03.25-.08.37a.69.69 0 0 1-.22.28c-.11.08-.25.14-.42.17-.17.04-.34.06-.5.08v.4l2.93.14.08-.09V.12a.8.8 0 0 1 .07-.35c.04-.1.12-.17.22-.22a.97.97 0 0 1 .33-.1l.36-.03z" transform="translate(112.98 106.65)"></path>
    <path d="m0 0-2.59-.16-.08.08v.71h-.03c-.13-.1-.25-.22-.36-.33A2.8 2.8 0 0 0-4-.2c-.17-.04-.41-.07-.73-.07-.54 0-.96.17-1.25.5-.29.33-.44.8-.44 1.4V4.1a.66.66 0 0 1-.3.59.69.69 0 0 1-.27.11c-.12.03-.22.04-.32.05v.4l2.63.14.06-.08V1.66c0-.38.07-.65.21-.83a.71.71 0 0 1 .59-.27c.25 0 .49.07.7.2.2.14.34.28.44.43v2.96c0 .12-.03.23-.07.33a.6.6 0 0 1-.2.24.64.64 0 0 1-.29.09 7.2 7.2 0 0 1-.37.03v.4l2.64.14.08-.08V1.07c0-.13.03-.23.07-.32a.65.65 0 0 1 .5-.32C-.23.41-.12.4 0 .4Z" transform="translate(122.91 105.67)"></path>
    <path d="M0 0h-3.26v.4l.25.03c.1 0 .17.03.22.05.08.04.13.1.16.18.03.07.05.19.05.34v2.56c0 .37-.07.65-.2.84-.14.19-.34.28-.6.28-.15 0-.28-.02-.4-.06A1.5 1.5 0 0 1-4.58 4V1.06c0-.13.02-.24.05-.32.04-.09.1-.15.18-.2l.22-.09.25-.05V0h-3.3v.4a4.33 4.33 0 0 1 .51.08c.12.04.2.1.24.19.05.08.07.2.07.33v3.19a.78.78 0 0 1-.31.6.9.9 0 0 1-.25.1c-.1.04-.21.06-.33.07v.4l2.59.14.08-.08v-.8h.02l.37.33a1.97 1.97 0 0 0 .93.54c.22.06.45.1.7.1.58 0 1.02-.18 1.32-.51.3-.34.44-.8.44-1.35V1.05c0-.14.02-.25.06-.33A.43.43 0 0 1-.5.53l.22-.08L0 .4Z" transform="translate(130.24 105.56)"></path>
    <path d="M0 0v3.1l-.1.27a.97.97 0 0 1-.88.58c-.37 0-.67-.2-.9-.61a3.6 3.6 0 0 1-.35-1.75c0-.3.03-.56.07-.8.04-.24.11-.45.22-.64a1.05 1.05 0 0 1 1-.62c.21 0 .4.04.54.13.14.08.28.2.4.34m2.77-.97L.09-1.14l-.08.07v.5l-.04.02c-.17-.2-.41-.36-.71-.5a2.28 2.28 0 0 0-2.72.6 3.13 3.13 0 0 0-.71 2.12c0 .77.26 1.43.79 1.98s1.17.83 1.92.83A3.33 3.33 0 0 0 0 4.15v1.8c0 .13-.03.25-.08.37a.69.69 0 0 1-.22.28c-.11.08-.25.14-.42.17-.17.04-.34.06-.5.08v.4l2.93.14.08-.09V.12a.8.8 0 0 1 .07-.35c.04-.1.12-.17.22-.22a.97.97 0 0 1 .33-.1l.36-.03z" transform="translate(134.71 106.65)"></path>
    <path d="M0 0c0-.28-.1-.51-.32-.71-.2-.2-.46-.3-.75-.3-.3 0-.55.1-.76.3a.93.93 0 0 0-.31.71c0 .28.1.52.31.71.21.2.47.3.76.3.3 0 .55-.1.76-.3C-.12.51 0 .28 0 0m.8-7.47h-3.44v.4a7.88 7.88 0 0 1 .51.08c.12.05.2.1.25.19.04.08.07.2.07.33v3.18a.66.66 0 0 1-.3.57 1.95 1.95 0 0 1-.66.2v.4l2.66.15.08-.08V-6.4c0-.13.03-.24.08-.33a.5.5 0 0 1 .23-.2 1.86 1.86 0 0 1 .51-.14z" transform="translate(140.2 113.03)"></path>
    <path d="m0 0-.6-.24c-.2-.09-.37-.18-.5-.28-.13-.1-.23-.23-.31-.4a1.28 1.28 0 0 1-.12-.56c0-.28.07-.49.2-.62.13-.12.29-.19.47-.19.2 0 .37.04.5.12.13.09.24.19.34.3zm2.7-2.85a3.95 3.95 0 0 0-.57-.2 2.61 2.61 0 0 0-.69-.08c-.44 0-.77.06-.98.2a1 1 0 0 0-.43.57H0a3.41 3.41 0 0 0-.36-.32 2.78 2.78 0 0 0-.86-.4 2.76 2.76 0 0 0-.66-.06c-.42 0-.78.12-1.07.37-.3.25-.45.58-.45 1 0 .23.03.44.1.6a1.42 1.42 0 0 0 .66.73c.14.08.3.15.47.22.32.12.71.25 1.17.37.46.14.79.25 1 .35v.53c0 .1 0 .21-.02.36s-.05.28-.1.38a.72.72 0 0 1-.23.3.7.7 0 0 1-.43.12 1 1 0 0 1-.4-.07l-.26-.14c.01-.08.04-.19.1-.34.04-.15.07-.3.07-.43a.72.72 0 0 0-.05-.23.51.51 0 0 0-.14-.22.95.95 0 0 0-.28-.17C-1.84.55-2 .53-2.22.53c-.3 0-.53.07-.69.22a.76.76 0 0 0-.23.58c0 .2.08.38.24.55.16.16.36.3.59.4a4.17 4.17 0 0 0 1.61.34c.35 0 .67-.02.97-.06.29-.04.55-.13.79-.26.22-.13.4-.31.53-.55.14-.25.2-.56.2-.96a49.73 49.73 0 0 0-.05-2.58c0-.16.03-.3.08-.39.04-.1.12-.17.22-.21a.8.8 0 0 1 .3-.06h.35z" transform="translate(144.73 108.52)"></path>
  </g>
</svg>
