<?xml version="1.0" encoding="utf-8"?>
<svg xmlns="http://www.w3.org/2000/svg" viewBox="49.4 46 301.23 308">
  <style>
    path {
      fill: #0d2630;
    }

    @media (prefers-color-scheme: dark) {
      path {
        fill: #fbf7f0;
      }
    }
  </style>
  <path d="M107.6 354 49.4 102.1l243-56.1 58.2 251.9-243 56.1zM61.3 109.5 115 342.2l223.7-51.7L285 57.8 61.3 109.5z"/>
  <path d="M274.7 71.1 76.3 116.9l39.8 172.3 198.3-45.8-39.7-172.3zm-68 176.8c-35 8.1-66.1-11.9-73.5-43.8a59.3 59.3 0 0 1 44.9-71.6 58.6 58.6 0 0 1 54.6 14.2L214 164.1a32.6 32.6 0 0 0-30.2-6.7 32.7 32.7 0 0 0-25 41c4.4 18.9 20.9 29.7 42.6 24.7 14.8-3.4 23-12.2 24.5-23.8l-29.7 6.9-5.2-22.3 55.8-12.9 2.2 9.5c7.8 34-11.1 60.1-42.3 67.4z"/>
</svg>
