<?xml version="1.0" encoding="utf-8"?>
<svg xmlns="http://www.w3.org/2000/svg" viewBox="5.78 6.36 37.23 37.28">
  <style>
    path {
      fill: #0d2630;
    }

    @media (prefers-color-scheme: dark) {
      path {
        fill: #fbf7f0;
      }
    }
  </style>
  <path d="M12.9723 43.63 5.78 13.16l30.036-6.8 7.1923 30.48-30.036 6.8ZM7.2512 14.05l6.6406 28.15 27.6556-6.25L34.917 7.8 7.2307 14.05Z" />
  <path d="m38.835 30.24-24.82 5.55L9.04 14.94 33.861 9.4Zm-6.964-9.313c-.979-4.364-5.353-7.1-9.769-6.11-1.702.376-3.239 1.286-4.396 2.6a7.166 7.166 0 0 1 3.096-1.521c3.169-.711 6.317.608 8.052 3.088l-2.694.604c-1.486-1.348-3.527-1.88-5.467-1.423-3 .673-5.352 3.083-4.574 6.552.476 2.121 1.637 3.684 3.1 4.698 1.891 1.276 4.213 1.713 6.425 1.209 4.419-.992 7.206-5.33 6.227-9.697Zm-2.17-.545c.137.327.245.668.325 1.023.752 3.355-1.386 6.682-4.78 7.444-3.392.76-6.752-1.334-7.504-4.689l-.05-.257c-.281-1.999 1.014-3.87 2.968-4.287.409-.091.814-.116 1.209-.078-1.394.839-2.099 2.484-1.75 4.089.46 2.054 2.518 3.342 4.6 2.875 1.658-.372 2.831-1.746 3.001-3.331l-3.621.813-.5-2.233 5.944-1.333Z" />
</svg>
