<?xml version="1.0" encoding="utf-8"?>
<svg xmlns="http://www.w3.org/2000/svg" viewBox="14.87 62.53 163.02 67.67">
  <style type="text/css">
    path.ink {
      fill: black;
    }

    path.background {
      fill: white;
    }

    @media (prefers-color-scheme: dark) {
      path.ink {
        fill: white;
      }

      path.background {
        fill: black;
      }
    }
  </style>
  <path class="ink" d="M123.842 62.568c-7.799 0-19.402 5.607-19.402 21.05 0 15.119 11.326 21.241 18.949 21.667l22.652.015c.934.08 2.205.482 2.205 4.158 0 2.955-.812 4.299-2.699 4.492 0 0-62.1-.015-69.628-.015-1.682-2.42-3.093-4.445-6.01-8.636H82.77c7.675 0 19.09-5.774 19.09-21.682 0-8.495-3.33-13.417-6.117-16.055-5.475-5.163-12.155-5.054-13.443-4.98l-34.767-.015a14.143 14.143 0 0 0-13.438 9.694l-19.206 57.931h17.13L49.05 78.827h33.72c1.129.009 2.834.039 2.834 4.791 0 4.663-1.763 5.331-3.087 5.428l-23.059-.006c-4.411 0-8.133 2.097-9.961 5.604-1.835 3.508-1.424 7.763 1.1 11.376l16.831 24.172h78.613c7.568-.229 18.459-5.936 18.459-20.734 0-14.981-11.037-20.418-18.459-20.418h-22.199c-3.146-.399-3.146-4.049-3.146-5.422 0-2.391.404-4.625 3.346-4.793l48.439.002c1.811-5.478 3.623-10.926 5.387-16.26h-54.026v.001z" />
  <path class="background" d="M123.842 69.493c-.125 0-12.48.161-12.48 14.125 0 13.898 12.285 14.748 12.416 14.755l22.264.003c.369.002 9.125.19 9.125 11.082 0 10.93-8.791 11.388-9.168 11.402l-73.696-.003-14.049-20.174c-.358-.521-.559-1.015-.559-1.385a.67.67 0 0 1 .077-.338c.188-.362.835-.585 1.688-.585h23.31c.124 0 12.167-.171 12.167-14.758 0-4.837-1.329-8.545-3.952-11.018-3.534-3.337-8.092-3.117-8.286-3.105l-35.167-.002c-3.17 0-5.863 1.947-6.863 4.955l-18.483 55.745h2.535l18.23-54.987c.676-2.038 2.434-3.302 4.581-3.302H82.77c.101-.006 3.823-.159 6.587 2.47 2.104 1.999 3.169 5.11 3.169 9.245 0 12.137-9.362 12.343-9.763 12.346H59.458c-2.476 0-3.458 1.18-3.822 1.882-.371.703-.776 2.186.641 4.214l14.767 21.209h74.998c.152-.006 11.537-.509 11.537-13.811 0-13.338-11.42-13.494-11.537-13.494h-22.199c-.342-.023-10.068-.758-10.068-12.346 0-11.521 9.662-11.715 10.072-11.715h50.928c.271-.806.535-1.608.799-2.411h-51.732v.001z" />
</svg>
