<?xml version="1.0" encoding="utf-8"?>
<svg xmlns="http://www.w3.org/2000/svg" viewBox="165.68 132.5 14.09 17.98">
  <style type="text/css">
    path {
      fill: black;
    }

    @media (prefers-color-scheme: dark) {
      path {
        fill: white;
      }
    }
  </style>

  <path d="M174.58 139.52a1.78 1.78 0 0 1-1.42 1.25v1.46c.48.13.6.45 1.34.5.78-.06.9-.4 1.46-.5v-1.47a1.83 1.83 0 0 1-1.38-1.24"></path>
  <path d="M170.9 139.51a1.78 1.78 0 0 1-1.4 1.26v1.46c.5.12.65.45 1.4.5.75-.05.9-.37 1.4-.5v-1.47a1.82 1.82 0 0 1-1.4-1.25"></path>
  <path d="M179.77 132.5h-14.08l-.01 11.56c-.1 3.6 3.53 6.5 7.04 6.42 3.51.09 7.11-2.8 7.04-6.4zm-2.71 14.25a1.6 1.6 0 0 0-.73-.15c-.9 0-.9.45-1.83.54-.93-.09-.87-.54-1.77-.54s-.9.45-1.83.54c-.92-.09-.92-.54-1.82-.54a1.63 1.63 0 0 0-.79.18c-.15-.22-.3-.44-.42-.67.39-.16.58-.38 1.2-.38.9 0 .9.45 1.84.53.92-.08.92-.53 1.82-.53s.85.45 1.77.53c.93-.08.93-.53 1.83-.53.6 0 .8.2 1.14.36-.12.23-.26.45-.41.66m.75-1.44c-.6-.15-.71-.48-1.48-.48-.9 0-.9.45-1.83.54-.93-.09-.87-.54-1.77-.54s-.9.45-1.83.54c-.92-.09-.92-.54-1.82-.54-.8 0-.9.35-1.56.5-.1-.28-.16-.56-.2-.84.86-.08.89-.53 1.76-.53.9 0 .9.48 1.83.54.92-.06.92-.54 1.82-.54s.85.48 1.77.54c.93-.06.93-.54 1.83-.54.85 0 .9.43 1.69.52-.05.28-.12.56-.2.83m.26-2.6v.88c-.85-.08-.88-.53-1.75-.53-.9 0-.9.48-1.83.53-.93-.05-.87-.53-1.77-.53s-.9.48-1.83.53c-.92-.05-.92-.53-1.82-.53s-.9.47-1.83.53l.01-.87c.73-.06.89-.36 1.37-.48v-1.48c-.78-.18-1.68-.81-1.49-2.45 0-1.46 1.04-3.88 1.94-3.76.72-.1 1.56 1.55 1.83 2.95.25-1.4 1.08-3.05 1.82-2.95.71-.1 1.56 1.5 1.84 2.9.28-1.4 1.13-3 1.84-2.9.87-.12 1.91 2.3 1.91 3.76.2 1.7-.74 2.32-1.5 2.46v1.48c.44.13.6.4 1.26.46"></path>
</svg>
