<?xml version="1.0" encoding="utf-8"?>
<svg viewBox="0 0 840 600"
  xmlns="http://www.w3.org/2000/svg"
  xmlns:xlink="http://www.w3.org/1999/xlink">
  <defs>
    <linearGradient gradientTransform="translate(-45.3 .4)" gradientUnits="userSpaceOnUse" y2="108.8" x2="658.5" y1="6.6" x1="660.1" id="b" xlink:href="#a"/>
    <linearGradient id="a">
      <stop offset="0" style="stop-color:#c2c2c2;stop-opacity:1"/>
      <stop offset="1" style="stop-color:#9f9f9f;stop-opacity:1"/>
    </linearGradient>
  </defs>
  <path fill="#DADBDC" d="M0 0h840v600H0z"/>
  <path style="fill:#747474" d="M-42.7 435.9h6.8v32.4h-6.8Zm21.7 12q-1.5 0-2.6.5-1 .4-2.1 1.3v18.6H-32v-24.7h5.4l.4 2.8q1.3-1.3 3-2.3 1.8-1 4.4-1 2.3 0 4 .9 1.7.9 2.6 2.9l1.4-1.5q.8-.7 1.8-1.2t2.1-.8q1.2-.4 2.6-.4 3.4 0 5.5 2 2 2.1 2 6.4v16.9h-6v-15.9q0-2.6-1.1-3.5-1.1-1-2.7-1-1.4 0-2.5.5-1.1.4-2.2 1.3v18.6h-6.1v-15.9q0-2.6-1-3.5-1.1-1-2.7-1Zm36 16.6q1.8 0 3-.6 1.2-.7 2-1.8v-5l-3.6.6q-2.8.4-4 1.2-1.2.8-1.2 2.4 0 1.5 1 2.3.8 1 2.8 1Zm5.4 1q-1 1.4-2.6 2.4-1.7 1-4.3 1-1.8 0-3.4-.5-1.5-.4-2.6-1.4-1-1-1.7-2.3-.6-1.3-.6-3.1 0-2 .7-3.3.7-1.3 2-2.2 1.3-.9 3.1-1.4 1.8-.5 4-.8l5-.7v-.1q0-3-1.3-4-1.3-1.1-4-1.1-2.4 0-4 .4-1.8.5-3.4 1.4h-.2V445q1.4-1 3.5-1.5 2-.5 4.9-.5 2.5 0 4.5.6 2 .5 3.3 1.7 1.4 1.1 2 3 .8 2 .8 4.6v15.4h-5.3Zm18.3-9.5q1.8 0 3-1.2t1.2-3.3q0-2-1.2-3.2-1.2-1.2-3-1.2-2 0-3.1 1.2-1.2 1.1-1.2 3.3 0 2 1.2 3.2 1.2 1.2 3 1.2Zm0 22.5q-5.4 0-8.4-1.5-3-1.4-3-4.5 0-1.1.5-2 .5-.8 1-1.2h4.8v.1l-.4.9q-.2.5-.2 1.3 0 1.3 1.4 2 1.3.7 4.4.7 3.3 0 4.9-1 1.5-1.2 1.5-2.8 0-1.2-.7-1.6-.6-.4-2.3-.5l-6.6-.2q-3.3-.2-4.7-1.6-1.5-1.3-1.5-3.3 0-1.7.9-3 .9-1.2 2.4-2-1.8-1-2.9-2.7-1-1.8-1-4 0-2 .7-3.5.7-1.6 2-2.7 1.3-1 3.1-1.7 1.9-.6 4-.6 1.4 0 2.5.2 1.2.3 2.3.8l7.5-.8v4.5h-3.6l.9 1.8q.3 1 .3 2.2 0 1.8-.7 3.2-.7 1.5-2 2.5t-3.2 1.7q-1.8.5-4 .5l-2.5-.2q-1.6.7-1.6 2 0 .9.6 1 .5.3 1.6.4l6.7.3q3.7.2 5.7 1.7t2 5.1q0 3.9-3.2 6.2-3.2 2.3-9.1 2.3Zm23.6-31q-2.3 0-3.9 1.4-1.5 1.3-2 4h10.8q-.2-2.6-1.4-4-1.1-1.4-3.5-1.4Zm10.1 19.4q-1.2.7-3.4 1.3-2.1.7-5.2.7-6.6 0-10-3.5-3.5-3.5-3.5-9.6 0-2.8.8-5.2.9-2.3 2.5-4 1.6-1.7 3.8-2.6 2.2-1 5-1 2.4 0 4.5.8t3.6 2.6q1.4 1.7 2.1 4.3.7 2.7.4 6.4H56.2q.4 3.6 2.4 5.3 2 1.7 5.6 1.7 2.6 0 4.5-.6t3.5-1.6l.2.2ZM87 448q-1.6 0-2.8.5-1.1.4-2.3 1.4v18.5h-6.2v-24.7h5.4l.4 3q.7-.8 1.5-1.4.8-.6 1.7-1 1-.6 2.1-.9 1.1-.3 2.5-.3 3.6 0 5.8 2 2.2 2 2.2 6.4v16.9H91v-15.8q0-1.3-.3-2.2-.3-.9-.8-1.4-.6-.5-1.4-.7-.7-.2-1.6-.2Zm37 1.1q-2.1 0-3.6.6-1.4.5-2.5 1.9v16.8h-6.1v-24.7h5.3l.5 3.8q1-1.7 2.7-3 1.7-1.2 4-1.2 1.3 0 2 .2v5.7l-.2.1q-.9-.2-2-.2Zm13.7-1.5q-2.3 0-3.9 1.4-1.5 1.3-2 4h10.8q-.2-2.6-1.4-4-1.1-1.4-3.5-1.4Zm10.1 19.4q-1.2.7-3.4 1.3-2.1.7-5.2.7-6.6 0-10-3.5-3.5-3.5-3.5-9.6 0-2.8.8-5.2.9-2.3 2.5-4 1.6-1.7 3.8-2.6 2.2-1 5-1 2.4 0 4.5.8t3.6 2.6q1.4 1.7 2.1 4.3.7 2.7.4 6.4h-16.8q.4 3.6 2.4 5.3 2 1.7 5.6 1.7 2.6 0 4.5-.6t3.5-1.6l.2.2Zm16.5 1.3-2 .4q-1.2.2-2.6.2-1.5 0-2.8-.3-1.3-.3-2.2-1-1-.8-1.6-2-.5-1.1-.5-3v-14.3h-3v-4.6h3v-4.2l6.1-1v5.2h5.3v4.6h-5.3v13.4q0 1.3.7 1.8.7.6 2 .6l1.4-.1 1.2-.3.3.1v4.5Zm2.8-33.9h6.2v5.4h-6.2Zm0 9.3h6.2v24.7H167Zm22.6 5.4q-2.2 0-3.6.6-1.5.5-2.6 1.9v16.8h-6.1v-24.7h5.4l.4 3.8q1-1.7 2.7-3 1.7-1.2 4.1-1.2 1.2 0 2 .2v5.7l-.3.1q-.8-.2-2-.2Zm11.3 15.5q1.8 0 3-.6 1.3-.7 2-1.8v-5l-3.5.6q-2.8.4-4 1.2-1.2.8-1.2 2.4 0 1.5.9 2.3 1 1 2.8 1Zm5.4 1q-.9 1.4-2.5 2.4-1.7 1-4.4 1-1.8 0-3.3-.5-1.5-.4-2.6-1.4-1.1-1-1.7-2.3-.7-1.3-.7-3.1 0-2 .8-3.3.7-1.3 2-2.2 1.3-.9 3-1.4 1.9-.5 4.1-.8l5-.7v-.1q0-3-1.3-4-1.3-1.1-4.1-1.1-2.4 0-4 .4-1.7.5-3.3 1.4h-.3V445q1.5-1 3.6-1.5 2-.5 4.9-.5 2.5 0 4.5.6 2 .5 3.3 1.7 1.4 1.1 2 3 .8 2 .8 4.6v15.4h-5.3Zm20.4-1.5q1.9 0 3.2-.6 1.3-.6 2.4-1.6v-12q-1-1-2.4-1.5-1.3-.5-3.1-.5-2.8 0-4.5 2-1.8 2.2-1.8 6.4 0 2 .5 3.5t1.3 2.5q.9.9 2 1.3 1 .5 2.4.5Zm6.1 1.1q-1.3 1.8-3.2 2.8-1.8 1-4.5 1-2.4 0-4.3-.8-2-.9-3.4-2.5-1.5-1.6-2.2-4-.8-2.3-.8-5.4 0-3 .8-5.5t2.3-4.2q1.4-1.7 3.5-2.6 2-.9 4.4-.9 2.3 0 4 .8 1.6.8 2.9 2.2v-11.1l6-1.3v34.7h-4.8Zm18-.6q1.7 0 3-.6 1.2-.7 2-1.8v-5l-3.7.6q-2.8.4-4 1.2-1.2.8-1.2 2.4 0 1.5 1 2.3.9 1 2.8 1Zm5.3 1q-1 1.4-2.6 2.4t-4.3 1q-1.8 0-3.3-.5-1.5-.4-2.6-1.4-1.1-1-1.8-2.3-.6-1.3-.6-3.1 0-2 .7-3.3.7-1.3 2-2.2 1.3-.9 3.1-1.4 1.9-.5 4.1-.8l5-.7v-.1q0-3-1.4-4-1.2-1.1-4-1.1-2.4 0-4 .4-1.7.5-3.3 1.4h-.3V445q1.5-1 3.5-1.5 2.1-.5 5-.5 2.5 0 4.4.6 2 .5 3.4 1.7 1.3 1.1 2 3 .8 2 .8 4.6v15.4h-5.3Zm32.2-1.4q2.7 0 4.4-2 1.8-2.2 1.8-6.4 0-2-.5-3.6-.5-1.4-1.3-2.4t-2-1.3q-1-.5-2.3-.5-2 0-3.3.6-1.3.7-2.4 1.8V462q1 1.1 2.4 1.6 1.3.5 3.2.5Zm1.4 4.8q-2.3 0-4-.8-1.7-.8-3-2.2v11.6h-6.1v-34h5.4l.4 3.2q1.3-1.8 3.2-2.7 1.8-1 4.4-1 2.3 0 4.3.9 2 .8 3.4 2.4 1.4 1.6 2.2 4 .8 2.3.8 5.4 0 3.1-.8 5.6-.8 2.4-2.3 4.1-1.5 1.7-3.5 2.6-2 .9-4.4.9Zm25 0q-2.8 0-5.1-1-2.4-.8-4.1-2.5-1.7-1.7-2.7-4.1-1-2.4-1-5.4 0-3 1-5.4 1-2.4 2.7-4 1.7-1.7 4-2.6 2.4-.9 5.2-.9 2.8 0 5.2 1 2.3.8 4 2.5 1.8 1.6 2.8 4 1 2.4 1 5.4 0 3-1 5.4-1 2.4-2.7 4-1.8 1.8-4.1 2.7-2.4.9-5.2.9Zm0-4.7q3 0 5-2.1 1.8-2.1 1.8-6.2 0-4-1.9-6-1.9-2.2-4.9-2.2-3 0-4.8 2.1-2 2.1-2 6.1 0 4 2 6.2 1.9 2 4.8 2Zm28-15.2q-2.1 0-3.6.6-1.4.5-2.5 1.9v16.8h-6.2v-24.7h5.4l.5 3.8q1-1.7 2.7-3 1.6-1.2 4-1.2 1.2 0 2 .2v5.7l-.3.1q-.8-.2-2-.2Zm25.4-1.5q-2.3 0-3.9 1.4-1.5 1.3-2 4h10.8q-.2-2.6-1.4-4-1.1-1.4-3.5-1.4Zm10.1 19.4q-1.2.7-3.4 1.3-2.1.7-5.2.7-6.6 0-10-3.5-3.5-3.5-3.5-9.6 0-2.8.8-5.2.9-2.3 2.5-4 1.6-1.7 3.8-2.6 2.2-1 5-1 2.4 0 4.5.8t3.6 2.6q1.4 1.7 2.1 4.3.7 2.7.4 6.4H362q.4 3.6 2.4 5.3 2 1.7 5.6 1.7 2.6 0 4.5-.6t3.4-1.6l.3.2Zm3.5-32 6.1-1.3v34.7h-6.1ZM-90.2 501.6l-4 10.3h8.1Zm6 15.1h-12l-2.6 6.8h-6.2v-.3l13.8-32.5h2.9l13.8 32.5v.3h-7Zm9 11.5q2.3-.2 3.5-1.1 1.3-.8 1.9-2.5l1-2.3-9.2-23.2v-.3h6.5l6 16.5 5.9-16.5h5.8v.3l-10 26.6q-.7 2-1.7 3.3-1 1.4-2.3 2.3-1.4 1-3.2 1.4-1.8.5-4.3.6Zm38-7.5q-1.4 1.4-3.3 2.4t-4.5 1q-3.7 0-6-2.1-2.3-2-2.3-6.3v-17h6.1v16q0 1.3.4 2.1.3.9.9 1.4.6.5 1.3.7.8.2 1.7.2 1.6 0 2.9-.4 1.2-.4 2.4-1.3v-18.6h6.2v24.7h-5.4Zm20.8-17.5q-1.6 0-2.8.4-1.2.4-2.4 1.4v18.5h-6.1v-24.7h5.4l.4 3q.7-.8 1.5-1.4.7-.6 1.7-1 1-.6 2-.9 1.2-.3 2.6-.3 3.5 0 5.7 2t2.2 6.4v16.9h-6.1v-15.8q0-1.3-.3-2.2-.3-.9-.9-1.4-.6-.5-1.3-.7l-1.6-.2Zm26.6 20.2-2 .4q-1.2.2-2.6.2-1.5 0-2.8-.3-1.3-.3-2.2-1-1-.8-1.6-2-.5-1.1-.5-3v-14.3h-3v-4.6h3v-4.2l6.1-1v5.2H10v4.6H4.6v13.4q0 1.3.7 1.8.7.6 2 .6l1.4-.1 1.2-.3.3.1v4.5Zm11-3.7q1.9 0 3-.6 1.3-.7 2-1.8v-5l-3.5.6q-2.8.4-4 1.2-1.2.8-1.2 2.4 0 1.5 1 2.3.8 1 2.8 1Zm5.5 1q-1 1.4-2.6 2.4-1.7 1-4.3 1-1.8 0-3.4-.5-1.5-.4-2.6-1.4-1-1-1.7-2.3-.6-1.3-.6-3.1 0-2 .7-3.3.7-1.3 2-2.2 1.3-.9 3.1-1.4 1.8-.5 4-.8l5-.7v-.1q0-3-1.3-4-1.3-1.1-4-1.1-2.4 0-4 .4-1.7.5-3.4 1.4h-.2v-4.8q1.4-1 3.5-1.5 2-.5 4.9-.5 2.5 0 4.5.6 2 .5 3.3 1.7 1.4 1.1 2.1 3 .7 2 .7 4.6v15.4h-5.3Zm20.2-17.5q-1.4 0-2.5.4t-2.2 1.3v18.6h-6.1v-24.7h5.4l.4 2.8q1.3-1.3 3-2.3 1.7-1 4.3-1 2.3 0 4 .9 1.7.9 2.6 2.9l1.5-1.5q.8-.7 1.7-1.2 1-.5 2.2-.8 1.1-.4 2.5-.4 3.4 0 5.5 2 2.1 2.1 2.1 6.4v16.9h-6.1v-15.9q0-2.6-1.1-3.5-1-1-2.6-1-1.5 0-2.6.5-1.1.4-2.2 1.3v18.6h-6v-15.9q0-2.6-1.1-3.5-1-1-2.7-1Zm27.7-13.7h6.2v5.4h-6.2Zm0 9.3h6.2v24.7h-6.1Zm21 3.9q-2.3 0-3.9 1.4-1.5 1.3-2 4h10.8q-.2-2.6-1.3-4-1.2-1.4-3.6-1.4Zm10.1 19.4q-1.2.7-3.4 1.3-2.1.7-5.2.7-6.6 0-10-3.5-3.5-3.5-3.5-9.6 0-2.8.8-5.2.9-2.3 2.5-4 1.6-1.7 3.8-2.6 2.2-1 5-1 2.4 0 4.5.8 2.1.9 3.6 2.6 1.4 1.7 2.1 4.3.7 2.7.4 6.4H89.5q.4 3.6 2.4 5.3 2 1.7 5.6 1.7 2.6 0 4.5-.6t3.5-1.6l.2.2Zm14.6-19q-1.5 0-2.7.5-1.2.4-2.4 1.4v18.5H109v-24.7h5.4l.4 3q.7-.8 1.5-1.4.8-.6 1.7-1 1-.6 2.1-.9 1.1-.3 2.5-.3 3.6 0 5.8 2 2.2 2 2.2 6.4v16.9h-6.1v-15.8q0-1.3-.4-2.2-.3-.9-.8-1.4-.6-.5-1.4-.7-.7-.2-1.6-.2Zm26.6 20.3-2 .4q-1.2.2-2.6.2-1.4 0-2.7-.3-1.3-.3-2.3-1-1-.8-1.5-2-.6-1.1-.6-3v-14.3h-3v-4.6h3v-4.2l6.2-1v5.2h5.3v4.6h-5.3v13.4q0 1.3.7 1.8.7.6 2 .6l1.4-.1 1.2-.3.2.1v4.5Zm13.6.7q-2.8 0-5.2-1-2.3-.8-4-2.5-1.8-1.7-2.7-4.1-1-2.4-1-5.4 0-3 1-5.4 1-2.4 2.7-4 1.7-1.7 4-2.6 2.4-.9 5.2-.9 2.7 0 5.1 1 2.4.8 4.2 2.5 1.7 1.6 2.7 4 1 2.4 1 5.4 0 3-1 5.4-1 2.4-2.7 4-1.8 1.8-4.2 2.7-2.4.9-5.1.9Zm0-4.7q3 0 4.9-2.1 1.9-2.1 1.9-6.2 0-4-1.9-6-1.9-2.2-5-2.2-2.9 0-4.8 2.1-1.8 2.1-1.8 6.1 0 4 1.8 6.2 2 2 4.9 2Zm37.6-.2q2 0 3.3-.6 1.3-.6 2.4-1.6v-12q-1.1-1-2.4-1.5-1.3-.5-3.1-.5-2.8 0-4.5 2-1.8 2.2-1.8 6.4 0 2 .5 3.5t1.3 2.5q.8.9 2 1.3 1 .5 2.3.5Zm6.2 1.1q-1.3 1.8-3.2 2.8-1.9 1-4.5 1-2.4 0-4.3-.8-2-.9-3.4-2.5-1.5-1.6-2.3-4-.7-2.3-.7-5.4 0-3 .8-5.5t2.2-4.2q1.5-1.7 3.5-2.6 2-.9 4.5-.9 2.3 0 4 .8 1.6.8 2.9 2.2V490l6-1.3v34.7H205Zm20.2-17.6q-2.3 0-3.9 1.4-1.5 1.3-2 4h10.8q-.2-2.6-1.4-4-1.1-1.4-3.5-1.4Zm10.1 19.4q-1.2.7-3.4 1.3-2.1.7-5.2.7-6.6 0-10-3.5-3.5-3.5-3.5-9.6 0-2.8.8-5.2.9-2.3 2.5-4 1.6-1.7 3.8-2.6 2.2-1 5-1 2.4 0 4.5.8 2.1.9 3.6 2.6 1.4 1.7 2.1 4.3.7 2.7.4 6.4h-16.8q.4 3.6 2.4 5.3 2 1.7 5.6 1.7 2.6 0 4.5-.6t3.5-1.6l.2.2Zm23 2q-3.4 0-5.7-.7-2.3-.7-3.8-1.7v-5.9h.2q2 1.3 4 2 2.1 1 5 1 2.7 0 4-1.2 1.4-1.1 1.4-3 0-.9-.3-1.5-.2-.6-.8-1.1-.5-.5-1.5-1l-2.3-.8-2.2-.8q-3.6-1.2-5.7-3.4-2-2.2-2-6 0-2.2.8-4 .8-1.8 2.2-3 1.4-1.2 3.4-1.9 2-.6 4.3-.6 2.8 0 5 .5 2 .5 3.5 1.4v5.6l-.2.1q-2-1.1-3.7-1.7-1.9-.6-4.3-.6-2.5 0-3.7 1-1.1 1-1.1 2.7 0 1.5.9 2.4.8 1 3 1.8l2.3.7q2.2.7 3.9 1.5 1.6.9 2.7 2t1.7 2.6q.5 1.5.5 3.6 0 2.4-.8 4.3-.8 1.8-2.3 3-1.5 1.4-3.7 2-2.1.7-4.7.7Zm23.6-4.4q1.8 0 3-.6 1.2-.7 2-1.8v-5l-3.6.6q-2.8.4-4 1.2-1.2.8-1.2 2.4 0 1.5 1 2.3.8 1 2.8 1Zm5.4 1q-1 1.4-2.6 2.4-1.7 1-4.3 1-1.8 0-3.4-.5-1.5-.4-2.6-1.4-1-1-1.7-2.3-.6-1.3-.6-3.1 0-2 .7-3.3.7-1.3 2-2.2 1.3-.9 3.1-1.4 1.8-.5 4-.8l5-.7v-.1q0-3-1.3-4-1.3-1.1-4-1.1-2.4 0-4 .4-1.8.5-3.4 1.4h-.2v-4.8q1.4-1 3.5-1.5 2-.5 4.9-.5 2.5 0 4.5.6 2 .5 3.3 1.7 1.4 1.1 2 3 .8 2 .8 4.6v15.4H287Zm20.7-17.5q-1.6 0-2.8.4-1.2.4-2.4 1.4v18.5H296v-24.7h5.4l.4 3q.7-.8 1.5-1.4.7-.6 1.7-1 1-.6 2-.9 1.2-.3 2.6-.3 3.5 0 5.7 2t2.2 6.4v16.9h-6.1v-15.8q0-1.3-.3-2.2-.3-.9-.9-1.4-.5-.5-1.3-.7l-1.6-.2Zm26.6 20.2-2 .4q-1.2.2-2.6.2-1.5 0-2.8-.3-1.3-.3-2.2-1-1-.8-1.6-2-.5-1.1-.5-3v-14.3h-3v-4.6h3v-4.2l6.1-1v5.2h5.3v4.6h-5.3v13.4q0 1.3.7 1.8.7.6 2 .6l1.4-.1 1.2-.3.3.1v4.5Zm11-3.7q1.9 0 3-.6 1.3-.7 2-1.8v-5l-3.5.6q-2.8.4-4 1.2-1.2.8-1.2 2.4 0 1.5 1 2.3.8 1 2.8 1Zm5.5 1q-1 1.4-2.6 2.4-1.7 1-4.3 1-1.8 0-3.4-.5-1.5-.4-2.6-1.4-1-1-1.7-2.3-.6-1.3-.6-3.1 0-2 .7-3.3.7-1.3 2-2.2 1.3-.9 3.1-1.4 1.8-.5 4-.8l5-.7v-.1q0-3-1.3-4-1.3-1.1-4-1.1-2.4 0-4 .4-1.7.5-3.4 1.4h-.2v-4.8q1.4-1 3.5-1.5 2-.5 4.9-.5 2.5 0 4.5.6 2 .5 3.3 1.7 1.4 1.1 2.1 3 .7 2 .7 4.6v15.4h-5.3Zm20.7-17.5q-1.6 0-2.8.4-1.2.4-2.4 1.4v18.5h-6.1v-24.7h5.4l.4 3q.7-.8 1.5-1.4.7-.6 1.7-1 1-.6 2-.9 1.2-.3 2.6-.3 3.5 0 5.7 2t2.2 6.4v16.9h-6.1v-15.8q0-1.3-.3-2.2-.3-.9-.9-1.4-.6-.5-1.3-.7l-1.6-.2Zm24.6 16q1.9 0 3.2-.6 1.3-.6 2.4-1.6v-12q-1-1-2.4-1.5-1.3-.5-3.1-.5-2.8 0-4.5 2-1.8 2.2-1.8 6.4 0 2 .5 3.5t1.3 2.5q.9.9 2 1.3 1 .5 2.4.5Zm6.1 1.1q-1.3 1.8-3.2 2.8-1.8 1-4.5 1-2.3 0-4.3-.8-2-.9-3.4-2.5-1.5-1.6-2.2-4-.8-2.3-.8-5.4 0-3 .8-5.5t2.3-4.2q1.4-1.7 3.5-2.6 2-.9 4.4-.9 2.3 0 4 .8 1.6.8 2.9 2.2V490l6.1-1.3v34.7h-4.9Zm20.2-17.6q-2.3 0-3.8 1.4-1.6 1.3-2 4h10.7q-.1-2.6-1.3-4t-3.6-1.4Zm10.1 19.4q-1.1.7-3.3 1.3-2.2.7-5.3.7-6.6 0-10-3.5-3.5-3.5-3.5-9.6 0-2.8.9-5.2.8-2.3 2.4-4 1.6-1.7 3.8-2.6 2.2-1 5-1 2.5 0 4.6.8 2 .9 3.5 2.6 1.4 1.7 2.1 4.3.7 2.7.4 6.4H416q.3 3.6 2.3 5.3 2 1.7 5.7 1.7 2.5 0 4.4-.6 2-.6 3.5-1.6l.3.2Zm15.7-17.9q-2.2 0-3.7.6-1.4.5-2.5 1.9v16.8h-6.1v-24.7h5.3l.5 3.8q1-1.7 2.7-3 1.7-1.2 4-1.2 1.3 0 2 .2v5.7l-.2.1q-.9-.2-2-.2Z" transform="translate(248.2 -23.1)"/>
  <g transform="translate(-475.6 112.5) scale(1.7376)">
    <rect style="fill:#9f9f9f;stroke-width:2.2995" width="82.5" height="90.5" x="398.8" y="178.7" ry="8.4" transform="rotate(-16.3)"/>
    <g transform="rotate(16.3 538.1 -184.9)">
      <rect ry="4.6" y="1.6" x="547.2" height="116" width="107.8" style="fill:url(#b);stroke:#fff;stroke-width:5.398"/>
      <g style="stroke:#fff;stroke-width:13.0708">
        <path style="fill:#ccc;" d="M270 107.4h491.1v450H270z" transform="matrix(.1727 0 0 .1727 512.5 -6.3)"/>
        <path style="fill:#fff;" d="M270 107.4h491.1v210H270z" transform="matrix(.1727 0 0 .1727 512.5 -6.3)"/>
        <path style="fill:#ccc;paint-order:stroke;" d="m300 317.4 38.5-53.6 60.5-45.1 15.9 18.5 13.6-38.6 8.2-3 13.3-28.2 180 180" transform="matrix(.1727 0 0 .1727 512.5 -6.3)"/>
        <path style="fill:#b3b3b3;paint-order:stroke;" d="M180 60a885.6 885.6 0 0 1 17.2 87.9l-22.1-7.2-46.1-29.4 5.3 46.4-1.6 24.8 10 30.4L216 201 300 180l-47.8-77.4-9.7 14.9-27.1-22.1Z" transform="matrix(.1727 0 0 .1727 559.1 12.2)"/>
        <path d="m420 347.4 81.9-74.5 18.5-9.6 23.7-44.2 25.9-21.7 180 180" style="fill:#ccc;paint-order:stroke;" transform="matrix(.1727 0 0 .1727 512.5 -6.3)"/>
        <path style="fill:#b3b3b3;paint-order:stroke;" d="m570 197.4 36 80.9v60.2l22.4 19.5a81.6 81.6 0 0 1 22.4-15.7c14.9-7 31.4-9.4 47.2-13.7a52 52 0 0 0 18.2-7.8c1.4-1 2.6-2.2 3.8-3.4h-30l-40.5-40.6-29.9-49-10.2 9z" transform="matrix(.1727 0 0 .1727 512.5 -6.3)"/>
        <path style="fill:#fff;paint-order:stroke;" d="M420 557.4c-.4-9.6-8.8-17.6 17.1-30.7 31.9-16 126-35.9 152.2-60 19.4-17.8-70.4-37.7-55-59 7-9.8 59-20 82.1-30.3 22-9.8 15.1-19.8 31.4-30 15.7-9.8 68.4-19.8 72.2-30-10.4 10.5-68.8 20.4-90 30-22.3 10-21.5 19.9-49.4 29.4-30.2 10.3-89.2 20.6-102.7 30.6-28.5 20.8 46.8 42.6 16.2 60-41.6 23.5-149.4 43.3-194.1 60-30.9 11.5-28.4 17.7-30 30" transform="matrix(.1727 0 0 .1727 512.5 -6.3)"/>
      </g>
    </g>
  </g>
</svg>
